<svg xmlns="http://www.w3.org/2000/svg" width="31" height="31" viewBox="0 0 31 31" fill="none">
  <path d="M26.7118 4.2311H22.6443V0.691741C22.6443 0.30973 22.3345 0 21.9523 0C21.5703 0 21.2603 0.309736 21.2603 0.691741V4.2311H9.10502V0.691741C9.10502 0.30973 8.79505 0 8.41304 0C8.0308 0 7.72106 0.309736 7.72106 0.691741V4.2311H3.65352C2.68494 4.23226 1.75645 4.61751 1.07142 5.30252C0.386614 5.98732 0.00136403 6.91581 0 7.88439V27.3467C0.00138995 28.3153 0.386643 29.2438 1.07142 29.9288C1.75645 30.6136 2.68494 30.9989 3.65352 31H26.7116C27.6801 30.9988 28.6086 30.6136 29.2937 29.9288C29.9785 29.2438 30.3637 28.3153 30.3651 27.3467V7.88439C30.3637 6.91581 29.9784 5.98732 29.2937 5.30252C28.6086 4.61748 27.6801 4.23223 26.7116 4.2311H26.7118ZM3.65376 5.61482H7.7213V9.04808C7.7213 9.43009 8.03103 9.73982 8.41327 9.73982C8.79529 9.73982 9.10525 9.43009 9.10525 9.04808V5.61482H21.2605V9.04808C21.2605 9.43009 21.5705 9.73982 21.9525 9.73982C22.3348 9.73982 22.6445 9.43009 22.6445 9.04808V5.61482H26.712C27.3137 5.61551 27.8907 5.85482 28.3161 6.28041C28.7416 6.70597 28.9809 7.28279 28.9817 7.88445V12.1635H1.38437V7.88445C1.38507 7.28279 1.62438 6.70598 2.04996 6.28041C2.47529 5.85484 3.05234 5.61553 3.654 5.61482H3.65376ZM26.7118 29.6164H3.65376C3.05211 29.6157 2.47506 29.3764 2.04972 28.9508C1.62416 28.5252 1.38485 27.9484 1.38413 27.3468V13.5475H28.9814V27.3468C28.9807 27.9484 28.7414 28.5252 28.3158 28.9508C27.8905 29.3764 27.3134 29.6157 26.7118 29.6164Z" fill="white"/>
  <path d="M9.94018 15.9716H6.88665C6.70317 15.9714 6.52711 16.0443 6.39738 16.1741C6.26764 16.3038 6.19467 16.4799 6.1949 16.6633V19.7169C6.19467 19.9003 6.26764 20.0764 6.39738 20.2061C6.52711 20.3361 6.70317 20.4088 6.88665 20.4088H9.94018C10.1237 20.4088 10.2997 20.3361 10.4294 20.2061C10.5592 20.0764 10.6322 19.9003 10.6319 19.7169V16.6633C10.6322 16.4799 10.5592 16.3038 10.4294 16.1741C10.2997 16.0443 10.1237 15.9714 9.94018 15.9716Z" fill="white"/>
  <path d="M16.7093 15.9716H13.6564C13.473 15.9714 13.2969 16.0443 13.1672 16.1741C13.0374 16.3038 12.9645 16.4799 12.9647 16.6633V19.7169C12.9645 19.9003 13.0374 20.0764 13.1672 20.2061C13.2969 20.3361 13.473 20.4088 13.6564 20.4088H16.7093C16.8928 20.4088 17.0689 20.3361 17.1986 20.2061C17.3283 20.0764 17.4013 19.9003 17.4013 19.7169V16.6633C17.4013 16.4799 17.3283 16.3038 17.1986 16.1741C17.0689 16.0443 16.8928 15.9714 16.7093 15.9716Z" fill="white"/>
  <path d="M23.4791 15.9716H20.4256C20.2421 15.9714 20.066 16.0443 19.9363 16.1741C19.8066 16.3038 19.7336 16.4799 19.7338 16.6633V19.7169C19.7336 19.9003 19.8066 20.0764 19.9363 20.2061C20.066 20.3361 20.2421 20.4088 20.4256 20.4088H23.4791C23.6626 20.4088 23.8386 20.3361 23.9684 20.2061C24.0981 20.0764 24.1711 19.9003 24.1708 19.7169V16.6633C24.1711 16.4799 24.0981 16.3038 23.9684 16.1741C23.8386 16.0443 23.6626 15.9714 23.4791 15.9716Z" fill="white"/>
  <path d="M9.94018 23.1638H6.88665C6.70317 23.1636 6.52711 23.2366 6.39738 23.3663C6.26764 23.496 6.19467 23.6721 6.1949 23.8556V26.9091C6.19467 27.0926 6.26764 27.2686 6.39738 27.3984C6.52711 27.5283 6.70317 27.6011 6.88665 27.6011H9.94018C10.1237 27.6011 10.2997 27.5283 10.4294 27.3984C10.5592 27.2686 10.6322 27.0926 10.6319 26.9091V23.8556C10.6322 23.6721 10.5592 23.496 10.4294 23.3663C10.2997 23.2366 10.1237 23.1636 9.94018 23.1638Z" fill="white"/>
  <path d="M16.7093 23.1638H13.6564C13.473 23.1636 13.2969 23.2366 13.1672 23.3663C13.0374 23.496 12.9645 23.6721 12.9647 23.8556V26.9091C12.9645 27.0926 13.0374 27.2686 13.1672 27.3984C13.2969 27.5283 13.473 27.6011 13.6564 27.6011H16.7093C16.8928 27.6011 17.0689 27.5283 17.1986 27.3984C17.3283 27.2686 17.4013 27.0926 17.4013 26.9091V23.8556C17.4013 23.6721 17.3283 23.496 17.1986 23.3663C17.0689 23.2366 16.8928 23.1636 16.7093 23.1638Z" fill="white"/>
  <path d="M23.4791 23.1638H20.4256C20.2421 23.1636 20.066 23.2366 19.9363 23.3663C19.8066 23.496 19.7336 23.6721 19.7338 23.8556V26.9091C19.7336 27.0926 19.8066 27.2686 19.9363 27.3984C20.066 27.5283 20.2421 27.6011 20.4256 27.6011H23.4791C23.6626 27.6011 23.8386 27.5283 23.9684 27.3984C24.0981 27.2686 24.1711 27.0926 24.1708 26.9091V23.8556C24.1711 23.6721 24.0981 23.496 23.9684 23.3663C23.8386 23.2366 23.6626 23.1636 23.4791 23.1638Z" fill="white"/>
</svg>