<svg xmlns="http://www.w3.org/2000/svg" width="150" height="300" viewBox="0 0 110 107" fill="none">
  <g clip-path="url(#clip0_4747_284151)">
    <path d="M108.093 7.66439V80.2893C108.093 83.4656 105.503 86.0502 102.321 86.0502H70.2938C67.1117 86.0502 64.5224 83.466 64.5224 80.2893V7.66439C64.5224 4.48812 67.1113 1.9035 70.2938 1.9035H77.023L77.0533 2.67611C77.0771 3.27783 77.2201 3.81104 77.4559 4.1782C77.5488 4.32248 77.7394 4.5651 77.9696 4.5651H94.6456C94.875 4.5651 95.0656 4.32248 95.1589 4.1782C95.3951 3.81104 95.5381 3.27783 95.5619 2.67611L95.5922 1.9035H102.321C105.503 1.9035 108.093 4.48812 108.093 7.66439H108.093Z" fill="white"/>
    <path d="M86.3003 56.4534C84.9104 56.4534 83.3819 55.8505 81.9964 54.7554C81.23 54.1497 80.5124 53.4 79.8643 52.5275C79.2339 51.6791 78.6682 50.7122 78.1791 49.6487C78.0641 49.6708 77.9465 49.6821 77.8286 49.6821C76.9903 49.6821 76.2485 49.1199 76.0252 48.315L75.268 45.5885C75.0136 44.6725 75.4929 43.7237 76.3507 43.3679C76.3276 43.2437 76.305 43.1156 76.2856 42.9822C76.0704 41.5325 76.1843 40.0941 76.624 38.7064C77.0347 37.4111 77.7095 36.2145 78.6302 35.1497C80.6049 32.8653 83.4724 31.5015 86.3003 31.5015C89.1283 31.5015 92.0636 32.8899 94.0508 35.2154C94.9594 36.279 95.6217 37.4687 96.0186 38.752C96.445 40.1291 96.5444 41.5542 96.315 42.9874C96.2944 43.116 96.2714 43.2401 96.2484 43.361C96.6369 43.5178 96.9603 43.7999 97.1711 44.1719C97.4178 44.6068 97.48 45.1097 97.3468 45.5885L96.5896 48.3146C96.3663 49.1195 95.6245 49.6817 94.7862 49.6817C94.6565 49.6817 94.5273 49.668 94.4001 49.641C93.9446 50.651 93.4273 51.5719 92.86 52.3828C92.2437 53.263 91.5645 54.0191 90.8413 54.6301C89.4295 55.8226 87.8595 56.4534 86.3003 56.4534ZM78.4255 48.6431C78.4796 48.6431 78.5337 48.6528 78.585 48.6721C78.6993 48.7152 78.7913 48.8027 78.8398 48.9147C79.7888 51.1016 81.0741 52.8769 82.5569 54.0485C83.7837 55.0182 85.1131 55.5518 86.3003 55.5518C89.1836 55.5518 91.9639 53.0663 93.7379 48.9035C93.7867 48.7886 93.8812 48.6991 93.9983 48.6564C94.1158 48.6137 94.2455 48.6213 94.3569 48.6778C94.4138 48.7064 94.472 48.7293 94.5305 48.7455C94.6141 48.7684 94.7001 48.7801 94.7858 48.7801C95.2199 48.7801 95.6035 48.4895 95.719 48.0736L96.4761 45.3471C96.5448 45.1005 96.5125 44.8405 96.3845 44.6156C96.2569 44.3907 96.0505 44.2291 95.8034 44.1606C95.7759 44.153 95.7347 44.1477 95.6911 44.1425L95.6677 44.1397C95.5441 44.1243 95.4327 44.0586 95.3596 43.9583C95.2861 43.8579 95.2574 43.7322 95.2804 43.6101C95.2966 43.523 95.3131 43.4376 95.3301 43.3517C95.3636 43.1792 95.3955 43.0164 95.4234 42.8443C95.8268 40.3282 95.0951 37.8262 93.3635 35.7998C91.5459 33.6726 88.9054 32.4023 86.3003 32.4023C83.6953 32.4023 81.1193 33.6492 79.3139 35.7381C77.5577 37.7694 76.7997 40.2952 77.1789 42.85C77.2039 43.0184 77.2338 43.1772 77.2653 43.3453C77.2819 43.4336 77.2992 43.525 77.3154 43.6173C77.3368 43.7378 77.3081 43.8616 77.2358 43.9607C77.1635 44.0595 77.0545 44.1252 76.933 44.1421C76.9192 44.1441 76.9059 44.1457 76.8922 44.1473C76.8607 44.1513 76.8284 44.1558 76.8118 44.1602C76.2978 44.3025 75.9961 44.8349 76.1383 45.3471L76.8954 48.0736C77.0109 48.4895 77.3945 48.7801 77.8286 48.7801C77.9146 48.7801 78.0007 48.7684 78.0843 48.7455C78.1299 48.733 78.1767 48.7128 78.2333 48.6862C78.2938 48.6576 78.3597 48.6435 78.4255 48.6435V48.6431Z" fill="#85BECE"/>
    <path d="M75.1404 59.9791C72.453 59.9791 70.2744 57.8048 70.2744 55.1226V51.0782C70.2744 50.8021 70.0503 50.578 69.7733 50.578C69.4966 50.578 69.2721 50.8021 69.2721 51.0782V55.1226C69.2721 56.6872 69.8827 58.1578 70.9908 59.2637C72.0993 60.37 73.5728 60.979 75.14 60.979H79.1923C79.4689 60.979 79.6935 60.7553 79.6935 60.4788C79.6935 60.2028 79.4689 59.9787 79.1923 59.9787H75.14L75.1404 59.9791Z" fill="#85BECE"/>
    <path d="M102.34 55.1222C102.34 57.8043 100.162 59.9787 97.4743 59.9787H93.422C93.1454 59.9787 92.9209 60.2024 92.9209 60.4788C92.9209 60.7549 93.145 60.979 93.422 60.979H97.4743C99.042 60.979 100.516 60.3696 101.624 59.2637C102.732 58.1574 103.342 56.6868 103.342 55.1226V51.0782C103.342 50.8021 103.118 50.578 102.841 50.578C102.564 50.578 102.34 50.8021 102.34 51.0782V55.1226L102.34 55.1222Z" fill="#85BECE"/>
    <path d="M97.4739 27.9758C100.161 27.9758 102.34 30.1501 102.34 32.8323V36.8767C102.34 37.1528 102.564 37.3768 102.841 37.3768C103.118 37.3768 103.342 37.1532 103.342 36.8767V32.8323C103.342 31.2677 102.732 29.7971 101.624 28.6912C100.515 27.5849 99.0416 26.9759 97.4743 26.9759H93.422C93.1454 26.9759 92.9209 27.1996 92.9209 27.476C92.9209 27.7521 93.145 27.9762 93.422 27.9762H97.4743L97.4739 27.9758Z" fill="#85BECE"/>
    <path d="M70.2744 32.8323C70.2744 30.1501 72.453 27.9758 75.1404 27.9758H79.1927C79.4693 27.9758 79.6939 27.7521 79.6939 27.4757C79.6939 27.1996 79.4693 26.9755 79.1927 26.9755H75.1856C73.6301 26.9755 72.1271 27.572 71.0198 28.6626C69.8932 29.7721 69.2725 31.2544 69.2725 32.8323V36.8767C69.2725 37.1528 69.4966 37.3769 69.7737 37.3769C70.0503 37.3769 70.2748 37.1532 70.2748 36.8767V32.8323H70.2744Z" fill="#85BECE"/>
    <path d="M102.321 0H70.2938C66.0593 0 62.6144 3.43824 62.6144 7.66439V80.2901C62.6144 84.5163 66.0593 87.9545 70.2938 87.9545H102.321C106.555 87.9545 110 84.5163 110 80.2901V7.66439C110 3.43824 106.555 0 102.321 0ZM108.093 80.2893C108.093 83.4656 105.503 86.0502 102.321 86.0502H70.2938C67.1117 86.0502 64.5224 83.466 64.5224 80.2893V7.66439C64.5224 4.48812 67.1113 1.9035 70.2938 1.9035H77.023L77.0533 2.67611C77.0771 3.27783 77.2201 3.81104 77.4559 4.1782C77.5488 4.32248 77.7394 4.5651 77.9696 4.5651H94.6456C94.875 4.5651 95.0656 4.32248 95.1589 4.1782C95.3951 3.81104 95.5381 3.27783 95.5619 2.67611L95.5922 1.9035H102.321C105.503 1.9035 108.093 4.48812 108.093 7.66439V80.2893H108.093Z" fill="#85BECE"/>
    <path d="M87.6231 2.50421C87.7407 1.78114 87.2488 1.09983 86.5243 0.982462C85.7998 0.865091 85.1172 1.3561 84.9996 2.07917C84.882 2.80224 85.3739 3.48354 86.0984 3.60092C86.8229 3.71829 87.5055 3.22727 87.6231 2.50421Z" fill="white"/>
    <path d="M67.6262 99.3396H67.4901V99.4755V106.732V106.868H67.6262H68.1572H68.2933V106.732V103.395H71.7891H71.9252V103.26V102.729V102.594H71.7891H68.2933V100.141H72.3339H72.4696V100.006V99.4755V99.3396H72.3339H67.6262Z" fill="#2F647E"/>
    <path d="M77.3759 101.884C77.2047 101.703 76.9814 101.564 76.7117 101.468C76.448 101.375 76.1257 101.328 75.7534 101.328C75.081 101.328 74.5629 101.456 74.2128 101.708C73.8542 101.967 73.6435 102.364 73.5861 102.887L73.5696 103.037H74.3635L74.3804 102.921C74.4188 102.655 74.5387 102.463 74.7459 102.334C74.9643 102.198 75.3052 102.129 75.7595 102.129C76.0672 102.129 76.3111 102.166 76.4839 102.238C76.6491 102.307 76.7747 102.402 76.8566 102.519C76.941 102.64 76.9959 102.786 77.0194 102.954C77.0396 103.098 77.0517 103.255 77.0561 103.422H76.5828C75.5559 103.422 74.7701 103.594 74.2476 103.934C73.7064 104.286 73.4323 104.786 73.4323 105.42C73.4323 105.655 73.4779 105.874 73.5675 106.069C73.6568 106.265 73.7808 106.434 73.9362 106.572C74.0905 106.709 74.2754 106.816 74.4862 106.89C74.6946 106.963 74.9219 107 75.1622 107C75.3354 107 75.5091 106.989 75.6783 106.966C75.8511 106.943 76.0272 106.899 76.2008 106.837C76.3745 106.774 76.5534 106.688 76.7331 106.58C76.8393 106.516 76.9479 106.442 77.0581 106.357V106.868H77.8613V103.379C77.8613 103.071 77.8238 102.79 77.7495 102.541C77.6727 102.285 77.5472 102.065 77.3759 101.884ZM77.0581 105.373C76.977 105.458 76.8825 105.547 76.7767 105.638C76.6575 105.741 76.5247 105.835 76.3813 105.919C76.2404 106.002 76.0874 106.07 75.927 106.122C75.7712 106.173 75.6076 106.198 75.4412 106.198C75.056 106.198 74.7519 106.121 74.5375 105.969C74.3348 105.824 74.2358 105.627 74.2358 105.367C74.2358 105.005 74.3994 104.733 74.7362 104.536C75.0919 104.329 75.6484 104.224 76.3906 104.224H77.0581V105.373Z" fill="#2F647E"/>
    <path d="M82.8646 105.218H82.7459L82.7302 105.336C82.7112 105.477 82.6652 105.601 82.5937 105.704C82.5202 105.81 82.4269 105.9 82.3163 105.972C82.2028 106.045 82.0719 106.102 81.9274 106.14C81.7804 106.179 81.6245 106.198 81.4642 106.198C81.2223 106.198 80.9986 106.156 80.7995 106.073C80.6033 105.991 80.4328 105.867 80.2927 105.703C80.1506 105.537 80.0387 105.324 79.9608 105.072C79.8812 104.814 79.8409 104.508 79.8409 104.161C79.8409 103.814 79.8812 103.514 79.9608 103.256C80.0387 103.004 80.1506 102.791 80.2927 102.625C80.4328 102.461 80.6033 102.337 80.7995 102.255C80.999 102.172 81.2223 102.129 81.4642 102.129C81.6374 102.129 81.8014 102.149 81.9512 102.188C82.097 102.226 82.227 102.283 82.3373 102.358C82.4447 102.43 82.5331 102.522 82.6005 102.629C82.6676 102.736 82.7112 102.86 82.7306 103L82.7467 103.116H83.5459L83.5168 102.956C83.47 102.698 83.3848 102.465 83.2644 102.262C83.1433 102.058 82.991 101.885 82.8125 101.747C82.6345 101.61 82.4277 101.504 82.1983 101.433C81.9714 101.363 81.7247 101.327 81.4642 101.327C81.102 101.327 80.7676 101.392 80.4708 101.521C80.1724 101.65 79.9127 101.839 79.6987 102.083C79.4859 102.325 79.3203 102.627 79.2069 102.979C79.0946 103.326 79.0377 103.724 79.0377 104.16C79.0377 104.596 79.0958 105.007 79.2105 105.355C79.3264 105.707 79.4928 106.008 79.7056 106.25C79.9196 106.495 80.1797 106.682 80.4785 106.809C80.7753 106.935 81.1068 106.999 81.4646 106.999C81.7198 106.999 81.9641 106.965 82.1907 106.898C82.4204 106.829 82.6276 106.724 82.8061 106.586C82.985 106.449 83.1368 106.277 83.258 106.075C83.3783 105.875 83.4655 105.641 83.5172 105.379L83.5491 105.217H82.8659L82.8646 105.218Z" fill="#2F647E"/>
    <path d="M88.2863 102.094C88.0747 101.848 87.8146 101.656 87.5138 101.525C87.2141 101.394 86.8766 101.328 86.5099 101.328C86.1432 101.328 85.8202 101.394 85.525 101.525C85.229 101.656 84.9697 101.847 84.7541 102.093C84.5393 102.337 84.3717 102.638 84.2558 102.988C84.1411 103.334 84.0829 103.726 84.0829 104.154C84.0829 104.582 84.1435 104.996 84.263 105.344C84.3834 105.696 84.557 105.998 84.7787 106.243C85.0016 106.489 85.2714 106.679 85.5807 106.807C85.888 106.935 86.2341 107 86.6092 107C86.8818 107 87.1427 106.965 87.3838 106.895C87.6281 106.825 87.8498 106.719 88.0432 106.58C88.2374 106.441 88.403 106.268 88.5354 106.067C88.6683 105.866 88.7624 105.633 88.8141 105.373L88.8468 105.211H88.0347L88.0214 105.332C88.0064 105.466 87.9592 105.583 87.8768 105.687C87.7904 105.797 87.6814 105.891 87.5534 105.965C87.4217 106.042 87.2723 106.101 87.1092 106.14C86.9436 106.179 86.7752 106.199 86.6092 106.199C86.375 106.199 86.1561 106.16 85.9583 106.082C85.7632 106.006 85.5884 105.889 85.439 105.734C85.2883 105.577 85.1636 105.377 85.0691 105.138C84.9871 104.932 84.9302 104.689 84.8995 104.416H88.9364V104.161C88.9364 103.729 88.8807 103.335 88.7709 102.99C88.6594 102.64 88.4967 102.339 88.2863 102.094ZM84.9116 103.614C84.9544 103.396 85.0162 103.201 85.0957 103.032C85.1922 102.827 85.3118 102.656 85.4519 102.522C85.59 102.39 85.7495 102.291 85.9256 102.227C86.1045 102.162 86.3011 102.129 86.5099 102.129C86.9339 102.129 87.2804 102.26 87.5691 102.53C87.8292 102.773 88.0081 103.137 88.1013 103.614H84.9116V103.614Z" fill="#2F647E"/>
    <path d="M96.4826 99.3396H96.3469V99.4755V106.732V106.868H96.4826H97.014H97.1501V106.732V99.4755V99.3396H97.014H96.4826Z" fill="#2F647E"/>
    <path d="M104.166 100.269C103.532 99.6572 102.573 99.3465 101.316 99.3465H98.9826V106.868H101.316C103.843 106.868 105.124 105.583 105.124 103.048C105.124 101.818 104.802 100.883 104.166 100.269H104.166ZM104.146 104.346C104.054 104.712 103.894 105.026 103.671 105.281C103.448 105.533 103.145 105.729 102.768 105.862C102.384 105.997 101.891 106.066 101.303 106.066H99.7862V100.142H101.303C101.896 100.142 102.392 100.208 102.777 100.34C103.153 100.469 103.457 100.658 103.679 100.903C103.902 101.148 104.06 101.45 104.149 101.802C104.242 102.165 104.288 102.584 104.288 103.048C104.288 103.511 104.24 103.971 104.146 104.347V104.346Z" fill="#2F647E"/>
    <path d="M1.88745 99.3396H1.75177V99.4755V100.006V100.141H1.88745H4.26796V106.732V106.868H4.40405H4.93547H5.07115V106.732V100.141H7.47831H7.6144V100.006V99.4755V99.3396H7.47831H1.88745Z" fill="#2F647E"/>
    <path d="M12.4352 102.087C12.2236 101.841 11.9631 101.65 11.6619 101.521C11.3626 101.393 11.025 101.327 10.6588 101.327C10.2925 101.327 9.96139 101.392 9.66216 101.521C9.36131 101.65 9.10126 101.839 8.88925 102.083C8.67886 102.326 8.51491 102.626 8.40144 102.975C8.28918 103.321 8.23224 103.717 8.23224 104.154C8.23224 104.59 8.29039 105.001 8.40507 105.349C8.52056 105.7 8.68573 106.002 8.89571 106.247C9.10772 106.494 9.36697 106.683 9.6662 106.81C9.963 106.936 10.297 107 10.6588 107C11.0206 107 11.3562 106.935 11.6554 106.807C11.9567 106.678 12.2167 106.487 12.4287 106.24C12.6387 105.996 12.8026 105.693 12.9165 105.342C13.0288 104.994 13.0857 104.595 13.0857 104.154C13.0857 103.713 13.03 103.328 12.9202 102.983C12.8087 102.634 12.646 102.332 12.4356 102.087H12.4352ZM12.1594 105.064C12.079 105.317 11.9659 105.531 11.823 105.7C11.6825 105.866 11.5133 105.992 11.3194 106.073C11.1224 106.156 10.9003 106.198 10.6584 106.198C10.4165 106.198 10.1875 106.156 9.99087 106.073C9.79703 105.992 9.62783 105.866 9.4873 105.7C9.34476 105.532 9.2329 105.318 9.15456 105.065C9.07501 104.808 9.03462 104.501 9.03462 104.154C9.03462 103.807 9.07501 103.507 9.15456 103.25C9.2325 102.998 9.34395 102.786 9.48609 102.623C9.62662 102.46 9.79623 102.337 9.99046 102.255C10.1875 102.172 10.412 102.129 10.658 102.129C10.9039 102.129 11.1216 102.171 11.319 102.255C11.5133 102.337 11.6829 102.461 11.8234 102.623C11.9655 102.787 12.0782 102.998 12.1586 103.251C12.2401 103.508 12.2817 103.812 12.2817 104.154C12.2817 104.496 12.2401 104.807 12.1586 105.064L12.1594 105.064Z" fill="#2F647E"/>
    <path d="M17.7636 101.46H17.6275V105.267C17.3945 105.562 17.1465 105.793 16.8909 105.954C16.6333 106.116 16.3546 106.198 16.0635 106.198C15.6661 106.198 15.3879 106.103 15.2369 105.915C15.0782 105.717 14.9978 105.39 14.9978 104.943V101.46H14.1946V104.989C14.1946 105.644 14.3384 106.146 14.6214 106.483C14.9106 106.826 15.3443 107 15.9108 107C16.0465 107 16.2008 106.985 16.3696 106.955C16.5392 106.925 16.7128 106.875 16.8861 106.809C17.0597 106.742 17.2333 106.653 17.4021 106.544C17.4805 106.494 17.556 106.437 17.6275 106.375V106.867H18.4307V101.46H17.7636Z" fill="#2F647E"/>
    <path d="M23.3742 105.218H23.2555L23.2397 105.335C23.2207 105.477 23.1747 105.601 23.1032 105.704C23.0297 105.81 22.9365 105.9 22.8258 105.972C22.7123 106.045 22.5815 106.102 22.4369 106.14C22.2899 106.179 22.1341 106.198 21.9738 106.198C21.7319 106.198 21.5082 106.156 21.3091 106.073C21.1128 105.991 20.9424 105.867 20.8023 105.703C20.6601 105.537 20.5483 105.324 20.4703 105.072C20.3908 104.814 20.3504 104.508 20.3504 104.161C20.3504 103.814 20.3908 103.514 20.4703 103.256C20.5483 103.004 20.6601 102.791 20.8023 102.625C20.9424 102.461 21.1128 102.337 21.3091 102.255C21.5086 102.172 21.7319 102.129 21.9738 102.129C22.147 102.129 22.3109 102.149 22.4608 102.188C22.6065 102.226 22.7366 102.283 22.8468 102.358C22.9542 102.43 23.0427 102.522 23.1101 102.629C23.1767 102.736 23.2207 102.86 23.2401 103L23.2563 103.116H24.0554L24.0264 102.956C23.9795 102.698 23.8943 102.465 23.774 102.262C23.6528 102.058 23.5006 101.885 23.3221 101.747C23.144 101.609 22.9373 101.504 22.7079 101.433C22.4809 101.363 22.2342 101.327 21.9738 101.327C21.6115 101.327 21.2772 101.392 20.9804 101.521C20.6819 101.65 20.4223 101.839 20.2083 102.083C19.9954 102.325 19.8299 102.627 19.7164 102.979C19.6041 103.326 19.5472 103.724 19.5472 104.16C19.5472 104.596 19.6054 105.007 19.72 105.355C19.8359 105.707 20.0023 106.008 20.2151 106.25C20.4291 106.495 20.6892 106.682 20.988 106.809C21.2848 106.935 21.6164 106.999 21.9742 106.999C22.2294 106.999 22.4737 106.965 22.7002 106.898C22.93 106.829 23.1372 106.724 23.3156 106.586C23.4945 106.449 23.6464 106.277 23.7675 106.075C23.8878 105.875 23.9751 105.641 24.0268 105.379L24.0587 105.217H23.3754L23.3742 105.218Z" fill="#2F647E"/>
    <path d="M27.3979 101.328C27.2674 101.328 27.1273 101.339 26.9815 101.362C26.8321 101.386 26.6746 101.431 26.5135 101.497C26.3508 101.563 26.182 101.66 26.0124 101.785C25.9211 101.852 25.8282 101.931 25.7345 102.02V99.3392H24.9313V106.867H25.7345V103.032C25.9881 102.747 26.2405 102.523 26.4856 102.366C26.7299 102.208 26.9876 102.129 27.2521 102.129C27.4564 102.129 27.6296 102.154 27.7669 102.203C27.8982 102.251 28.0008 102.32 28.0811 102.415C28.1619 102.511 28.2216 102.637 28.2588 102.79C28.298 102.953 28.3182 103.151 28.3182 103.378V106.867H29.1214V103.331C29.1214 102.678 28.9772 102.177 28.6925 101.842C28.4022 101.5 27.9668 101.327 27.3987 101.327L27.3979 101.328Z" fill="#2F647E"/>
    <path d="M36.9922 99.3396H36.8565V99.4755V106.732V106.868H36.9922H37.5236H37.6597V106.732V99.4755V99.3396H37.5236H36.9922Z" fill="#2F647E"/>
    <path d="M44.676 100.269C44.0416 99.6572 43.0829 99.3465 41.8259 99.3465H39.4922V106.868H41.8259C44.3525 106.868 45.6335 105.583 45.6335 103.047C45.6335 101.818 45.3112 100.883 44.6756 100.269H44.676ZM44.6554 104.346C44.5637 104.712 44.4038 105.026 44.1805 105.281C43.958 105.533 43.6543 105.729 43.278 105.862C42.8939 105.997 42.4009 106.066 41.8129 106.066H40.2958V100.142H41.8129C42.4057 100.142 42.9012 100.208 43.2861 100.34C43.6628 100.469 43.9665 100.658 44.189 100.903C44.4115 101.148 44.5698 101.45 44.659 101.802C44.7511 102.165 44.7975 102.584 44.7975 103.048C44.7975 103.511 44.7499 103.971 44.6554 104.347V104.346Z" fill="#2F647E"/>
    <path d="M45.4784 7.66439V80.2893C45.4784 83.4656 42.8891 86.0502 39.7062 86.0502H7.67942C4.49733 86.0502 1.90805 83.466 1.90805 80.2893V7.66439C1.90805 4.48812 4.49733 1.9035 7.67942 1.9035H39.7062C42.8887 1.9035 45.4784 4.48812 45.4784 7.66439Z" fill="white"/>
    <path d="M12.526 59.9791C9.83862 59.9791 7.66002 57.8048 7.66002 55.1226V51.0782C7.66002 50.8021 7.4359 50.578 7.15888 50.578C6.88227 50.578 6.65775 50.8021 6.65775 51.0782V55.1226C6.65775 56.6872 7.26832 58.1578 8.37639 59.2637C9.48487 60.37 10.9584 60.979 12.5256 60.979H16.5779C16.8546 60.979 17.0791 60.7553 17.0791 60.4788C17.0791 60.2028 16.855 59.9787 16.5779 59.9787H12.5256L12.526 59.9791Z" fill="#85BECE"/>
    <path d="M39.7256 55.1222C39.7256 57.8043 37.547 59.9787 34.8596 59.9787H30.8073C30.5306 59.9787 30.3061 60.2024 30.3061 60.4788C30.3061 60.7549 30.5302 60.979 30.8073 60.979H34.8596C36.4272 60.979 37.9007 60.3696 39.0088 59.2637C40.1173 58.1574 40.7275 56.6868 40.7275 55.1226V51.0782C40.7275 50.8021 40.5033 50.578 40.2263 50.578C39.9497 50.578 39.7252 50.8021 39.7252 51.0782V55.1226L39.7256 55.1222Z" fill="#85BECE"/>
    <path d="M34.8596 27.9758C37.547 27.9758 39.7256 30.1501 39.7256 32.8323V36.8767C39.7256 37.1528 39.9497 37.3768 40.2267 37.3768C40.5033 37.3768 40.7278 37.1532 40.7278 36.8767V32.8323C40.7278 31.2677 40.1173 29.7971 39.0092 28.6912C37.9007 27.5849 36.4272 26.9759 34.86 26.9759H30.8077C30.531 26.9759 30.3065 27.1996 30.3065 27.476C30.3065 27.7521 30.5306 27.9762 30.8077 27.9762H34.86L34.8596 27.9758Z" fill="#85BECE"/>
    <path d="M7.65962 32.8323C7.65962 30.1501 9.83822 27.9758 12.5256 27.9758H16.5779C16.8546 27.9758 17.0791 27.7521 17.0791 27.4757C17.0791 27.1996 16.855 26.9755 16.5779 26.9755H12.5709C11.0153 26.9755 9.51233 27.572 8.40507 28.6626C7.27841 29.7721 6.65775 31.2544 6.65775 32.8323V36.8767C6.65775 37.1528 6.88186 37.3769 7.15888 37.3769C7.4355 37.3769 7.66002 37.1532 7.66002 36.8767V32.8323H7.65962Z" fill="#85BECE"/>
    <path d="M39.7062 0H7.67941C3.44497 0 0 3.43824 0 7.66439V80.2901C0 84.5163 3.44497 87.9545 7.67941 87.9545H39.7062C43.9406 87.9545 47.3856 84.5163 47.3856 80.2901V7.66439C47.3856 3.43824 43.9406 0 39.7062 0ZM45.4784 80.2893C45.4784 83.4656 42.8891 86.0502 39.7062 86.0502H7.67941C4.49732 86.0502 1.90804 83.466 1.90804 80.2893V7.66439C1.90804 4.48812 4.49732 1.9035 7.67941 1.9035H39.7062C42.8887 1.9035 45.4784 4.48812 45.4784 7.66439V80.2893Z" fill="#85BECE"/>
    <path d="M22.6207 44.3621C22.6207 44.3359 22.6219 44.3093 22.6243 44.2836L22.6227 44.9582L22.6207 44.3621Z" fill="#85BECE"/>
    <path d="M23.2757 47.3313C22.993 47.1483 22.6203 47.3417 22.6203 47.6779V49.5608C22.6203 49.8038 22.8198 50.0001 23.0645 49.9961C23.3047 49.992 23.4929 49.7865 23.4929 49.5467V47.6988C23.4929 47.5517 23.4146 47.4171 23.2894 47.3401C23.285 47.3373 23.2805 47.3345 23.2757 47.3317V47.3313Z" fill="#85BECE"/>
    <path d="M23.0564 50.4495C23.2955 50.4495 23.4901 50.6417 23.4925 50.8803L23.4933 50.9517C23.4933 51.0472 23.5915 51.1246 23.6904 51.0871C23.7481 51.0653 23.7841 51.0077 23.7841 50.946V47.6549C23.7841 47.4163 23.9779 47.2228 24.217 47.2228C24.456 47.2228 24.6495 47.4159 24.6499 47.6541L24.6563 50.9323C24.6563 51.4873 24.2186 51.954 23.6629 51.9673C23.0903 51.981 22.6203 51.5199 22.6203 50.9517V50.8844C22.6203 50.6442 22.8153 50.4491 23.0564 50.4491V50.4495Z" fill="#85BECE"/>
    <path d="M23.4929 44.3674C23.4929 44.3057 23.5289 44.2481 23.5866 44.2263C23.6855 44.1888 23.7837 44.2662 23.7837 44.3617V44.4669C23.7837 44.5866 23.8329 44.6951 23.9113 44.7736C23.99 44.8526 24.0982 44.901 24.2182 44.9018C24.4601 44.903 24.6563 44.7079 24.6563 44.4665V44.3807C24.6563 43.8253 24.219 43.359 23.6629 43.3457C23.6052 43.3441 23.5482 43.3477 23.4929 43.3562C23.0253 43.4227 22.6602 43.8076 22.6239 44.2832L22.6227 44.7333V44.5975L22.6203 45.6724C22.6203 45.7071 22.6219 45.7417 22.6255 45.7756C22.6481 46.0049 22.7455 46.2149 22.8937 46.3769C23.0734 46.574 23.3278 46.7009 23.6137 46.7078C23.6714 46.7094 23.7283 46.7058 23.7837 46.6973C24.2763 46.6272 24.6563 46.2032 24.6563 45.6917V45.6248C24.6563 45.3846 24.4609 45.1896 24.2202 45.1896C23.9795 45.1896 23.7865 45.3818 23.7845 45.6204L23.7837 45.6917C23.7837 45.7873 23.6855 45.8646 23.5866 45.8272C23.5289 45.8054 23.4929 45.7474 23.4929 45.6861V44.367V44.3674Z" fill="#85BECE"/>
    <path d="M22.0085 51.0706V51.0081C22.0085 50.7828 21.8316 50.5893 21.6059 50.5853C21.3757 50.5813 21.1879 50.7659 21.1879 50.9948V51.071C21.1879 51.3112 21.2243 51.5429 21.2909 51.7614C21.3313 51.8931 21.4391 51.9931 21.5724 52.0286C21.576 52.0298 21.58 52.0306 21.5837 52.0318C21.8926 52.1136 22.1672 51.8242 22.0743 51.5187C22.0315 51.3769 22.0081 51.2265 22.0081 51.0706H22.0085Z" fill="#85BECE"/>
    <path d="M26.1105 48.039C26.1105 47.8105 25.9227 47.6255 25.6925 47.6295C25.4668 47.6335 25.2899 47.827 25.2899 48.0523V51.0702C25.2899 51.2362 25.2636 51.3962 25.2148 51.5461C25.1167 51.8484 25.39 52.1402 25.6986 52.0632C25.7022 52.0624 25.7062 52.0612 25.7099 52.0604C25.8439 52.0269 25.9534 51.9278 25.9958 51.7964C26.0697 51.5675 26.11 51.3237 26.11 51.0702V48.039H26.1105Z" fill="#85BECE"/>
    <path d="M28.2782 39.2417C27.2953 38.2865 26.0382 37.6997 24.6838 37.5534C24.4233 37.5252 24.1952 37.7275 24.1952 37.9891C24.1952 38.2139 24.3656 38.4005 24.5897 38.4251C27.1527 38.7064 29.1516 40.8256 29.1516 43.3904V49.0816C29.1516 49.0856 29.1516 49.1163 29.152 49.1646C29.1544 49.5709 29.6568 49.7631 29.9298 49.4613C29.9334 49.4572 29.9366 49.4536 29.9403 49.4496C30.0138 49.3682 30.0538 49.2622 30.0538 49.1529V43.3904C30.0538 41.8275 29.4234 40.354 28.2786 39.2417H28.2782Z" fill="#85BECE"/>
    <path d="M17.7615 49.3649C18.0107 49.3649 18.2126 49.1634 18.2126 48.9148V43.39C18.2126 40.7675 20.3023 38.6101 22.9486 38.4082C23.1779 38.3909 23.3552 38.2007 23.3552 37.9713C23.3552 37.717 23.1388 37.5147 22.8844 37.534C21.4528 37.6416 20.1182 38.2381 19.0856 39.2417C17.9408 40.354 17.3105 41.8275 17.3105 43.3904V48.9152C17.3105 49.1638 17.5124 49.3653 17.7615 49.3653V49.3649Z" fill="#85BECE"/>
    <path d="M24.6329 42.1394C24.372 42.0334 24.0869 42.2233 24.0869 42.5042V42.5368C24.0869 42.6984 24.1867 42.8411 24.3361 42.9036C24.8958 43.1365 25.2903 43.6879 25.2903 44.3299V46.4067C25.2903 46.6328 25.474 46.8162 25.7006 46.8162C25.9271 46.8162 26.1108 46.6328 26.1108 46.4067V44.3299C26.1108 43.3409 25.4991 42.4917 24.6329 42.1394Z" fill="#85BECE"/>
    <path d="M23.2716 42.501C23.2716 42.2136 22.9829 42.0177 22.7144 42.1201C21.8231 42.4598 21.1879 43.3219 21.1879 44.3295V49.3617C21.1879 49.5878 21.3717 49.7712 21.5982 49.7712C21.8247 49.7712 22.0085 49.5878 22.0085 49.3617V44.3295C22.0085 43.6689 22.426 43.1043 23.0112 42.8838C23.1695 42.8242 23.2716 42.6698 23.2716 42.501Z" fill="#85BECE"/>
    <path d="M28.2471 45.8675C28.0161 45.8675 27.8291 46.0545 27.8291 46.2846V50.4338C27.8291 50.7743 28.2152 50.9718 28.4926 50.7735C28.4954 50.7715 28.4982 50.7695 28.5007 50.7675C28.6105 50.6889 28.6751 50.5615 28.6747 50.4269L28.665 46.2838C28.6646 46.0537 28.4772 45.8675 28.2471 45.8675Z" fill="#85BECE"/>
    <path d="M23.4889 41.3975H23.8313C24.3914 41.3975 24.9131 41.5655 25.3481 41.8541C25.512 41.9629 25.7297 41.9444 25.869 41.8053C26.0527 41.622 26.0208 41.3177 25.8048 41.1742C25.239 40.7982 24.5602 40.5785 23.8313 40.5785H23.4372C21.4944 40.5785 19.9195 42.1503 19.9195 44.0893V44.29C19.9195 44.4875 20.0798 44.6475 20.2777 44.6475H20.3819C20.5798 44.6475 20.7401 44.4875 20.7401 44.29V44.1413C20.7401 42.6259 21.9709 41.3979 23.4889 41.3979V41.3975Z" fill="#85BECE"/>
    <path d="M31.3714 41.4809C31.2951 41.1544 30.9724 40.9864 30.7007 41.1307L30.693 41.1347C30.4842 41.2451 30.3748 41.5067 30.4321 41.7578C30.5476 42.2668 30.609 42.7976 30.609 43.3429V47.0794C30.609 47.7024 31.39 47.8354 31.5563 47.241C31.5588 47.2325 31.5612 47.2241 31.5632 47.2156C31.5777 47.1632 31.5846 47.1088 31.5846 47.054V43.3425C31.5846 42.7093 31.5131 42.0866 31.3714 41.4805V41.4809Z" fill="#85BECE"/>
    <path d="M16.2096 40.8191C16.0893 41.144 16.3377 41.4861 16.6841 41.4704C16.8788 41.4615 17.05 41.3374 17.1158 41.1544C17.9832 38.7532 20.4174 37.0194 23.2773 37.0194H24.1079C26.5579 37.0194 28.6957 38.2921 29.8034 40.167C29.929 40.3794 30.1939 40.4637 30.4172 40.3589L30.4232 40.356C30.6784 40.2359 30.7717 39.9224 30.6264 39.681C30.4176 39.3344 30.1773 39.0051 29.9076 38.6956C29.9072 38.6948 29.9063 38.6944 29.9059 38.6936C29.7444 38.5082 29.572 38.33 29.3891 38.1591C28.7014 37.5171 27.9018 37.0125 27.0126 36.6595C26.0907 36.2935 25.1134 36.1081 24.1083 36.1081H23.2777C22.2726 36.1081 21.2953 36.2935 20.3734 36.6595C19.676 36.9363 19.0344 37.3067 18.4581 37.763C17.789 38.3159 17.2091 38.9733 16.7427 39.7088C16.6135 39.9256 16.496 40.1489 16.3914 40.3786C16.3251 40.5237 16.265 40.6704 16.2096 40.8187V40.8191Z" fill="#85BECE"/>
    <path d="M16.7827 42.8367C16.7956 42.5465 16.5658 42.3035 16.2747 42.3035C16.0275 42.3035 15.824 42.4969 15.8107 42.7432C15.8046 42.8589 15.8014 42.9753 15.8014 43.0918V46.3225C15.8014 46.3696 15.8079 46.4168 15.8216 46.4619C15.824 46.4696 15.826 46.4772 15.8284 46.4849C15.9908 47.0177 16.777 46.902 16.777 46.3455V43.0918C16.777 43.0064 16.779 42.9213 16.7827 42.8367Z" fill="#85BECE"/>
    <path d="M20.2272 41.603C20.3375 41.4487 20.3334 41.2407 20.2143 41.0924C20.0399 40.8751 19.7051 40.8828 19.5424 41.1089C18.9718 41.9017 18.6641 42.8451 18.6641 43.8334V50.3777C18.6641 50.5111 18.7279 50.6373 18.8357 50.7163C18.8385 50.7183 18.8413 50.7203 18.8438 50.7223C19.1216 50.9255 19.5129 50.7276 19.5129 50.3838V43.8334C19.5129 43.0035 19.7774 42.2342 20.2272 41.603Z" fill="#85BECE"/>
    <path d="M20.7643 40.4766C20.8992 40.6446 21.1391 40.6825 21.3212 40.5668C21.9289 40.1811 22.6505 39.9575 23.4243 39.9575H23.9181C26.0745 39.9575 27.8291 41.6965 27.8291 43.8338V44.6306C27.8291 44.8643 28.0193 45.0542 28.2535 45.0542C28.4877 45.0542 28.6779 44.8643 28.6779 44.6306V43.8338C28.6779 42.5783 28.1816 41.3951 27.2799 40.5015C26.3786 39.608 25.1845 39.1163 23.9181 39.1163H23.4243C22.5048 39.1163 21.6236 39.3759 20.8649 39.8599C20.6545 39.9941 20.608 40.2819 20.7647 40.4766H20.7643Z" fill="#85BECE"/>
    <path d="M20.7401 45.8703C20.7401 45.6442 20.5563 45.4608 20.3298 45.4608C20.1033 45.4608 19.9195 45.6442 19.9195 45.8703V51.1032C19.9195 51.2539 20.0027 51.3926 20.136 51.4635C20.1392 51.4651 20.1424 51.4667 20.1457 51.4687C20.4211 51.615 20.7526 51.4111 20.7465 51.1C20.7425 50.8852 20.7401 50.6881 20.7401 50.6256V45.8703Z" fill="#85BECE"/>
    <path d="M27.4011 44.1409C27.4011 43.577 27.269 43.0434 27.0344 42.5691C26.914 42.326 26.6273 42.2523 26.4125 42.4179C26.2546 42.5397 26.2094 42.752 26.2954 42.9258C26.4775 43.2921 26.5801 43.7048 26.5801 44.1409V50.9859C26.5801 51.0266 26.5793 51.0915 26.5773 51.1677C26.57 51.4695 26.8821 51.6775 27.1567 51.5506C27.1596 51.5493 27.1624 51.5481 27.1652 51.5465C27.3086 51.48 27.3994 51.3353 27.3998 51.1778C27.4002 50.948 27.4011 50.6441 27.4011 50.6256V44.1409Z" fill="#85BECE"/>
  </g>
  <defs>
    <clipPath id="clip0_4747_284151">
      <rect width="110" height="107" fill="white"/>
    </clipPath>
  </defs>
</svg>