<svg xmlns="http://www.w3.org/2000/svg" width="20" height="20" viewBox="0 0 20 20" fill="none">
  <g clip-path="url(#clip0_5273_95311)">
    <path d="M0.5 12.876V19.9992H9.60411C9.37694 19.7704 9.23599 19.4536 9.23599 19.1036V13.7632C9.23599 13.0676 9.79269 12.5024 10.477 12.5024H13.8463C14.0357 12.5024 14.2109 12.39 14.292 12.216L14.3377 12.118C14.3707 12.0472 14.4101 11.9812 14.4558 11.9204C14.04 9.99444 12.3947 8.53644 10.3982 8.43924L8.32967 12.9268L8.16117 10.416H8.16274L8.55842 9.19204L7.53832 8.43404L7.53478 8.43164L7.53123 8.43404L6.50641 9.18564L6.89461 10.4124H6.90209L6.7324 12.9388L4.65835 8.43924C2.34334 8.55244 0.5 10.4956 0.5 12.876Z" fill="white"/>
    <path d="M4.03711 3.5464C4.03711 5.5052 5.60013 7.0928 7.52773 7.0928C9.45532 7.0928 11.0183 5.5048 11.0183 3.5464C11.0183 1.588 9.45611 0 7.52812 0C5.60013 0 4.0375 1.588 4.0375 3.5464H4.03711Z" fill="white"/>
    <path d="M19.0809 14.4532C19.0809 14.692 18.8904 14.8856 18.6553 14.8856H11.0186C10.7835 14.8856 10.593 14.692 10.593 14.4532C10.593 14.2144 10.7835 14.0208 11.0186 14.0208H18.6553C18.8904 14.0208 19.0809 14.2144 19.0809 14.4532ZM15.0214 12.4488L14.9754 12.5472C14.8793 12.7524 14.7336 12.9232 14.5564 13.0472C14.3513 13.1912 14.1049 13.2724 13.8454 13.2724H10.4761C10.2087 13.2724 9.99219 13.4928 9.99219 13.764V19.1044C9.99219 19.376 10.2091 19.596 10.4761 19.596H19.1061C19.3735 19.596 19.59 19.3756 19.59 19.1044V12.6112C19.59 12.402 19.4231 12.2324 19.2172 12.2324H15.3576C15.2139 12.2324 15.0828 12.3164 15.021 12.4484L15.0214 12.4488Z" fill="white"/>
  </g>
  <defs>
    <clipPath id="clip0_5273_95311">
      <rect width="19.0909" height="20" fill="white" transform="translate(0.5)"/>
    </clipPath>
  </defs>
</svg>