<svg width="19" height="15" viewBox="0 0 19 15" fill="none" xmlns="http://www.w3.org/2000/svg">
<g id="Layer_1" clip-path="url(#clip0_4747_283914)">
<path id="Vector" d="M14.9687 8.59375C14.7102 8.59375 14.5004 8.80352 14.5004 9.0625V11.2414C11.3617 13.9676 7.64922 13.9652 4.49961 11.241V9.0625C4.49961 8.80352 4.28984 8.59375 4.03125 8.59375C3.77265 8.59375 3.56289 8.80352 3.56289 9.0625V11.4523C3.56289 11.5855 3.61953 11.7121 3.71758 11.8012C5.53125 13.4316 7.51836 14.2469 9.5043 14.2469C11.4902 14.2469 13.4754 13.4312 15.2828 11.8004C15.3812 11.7113 15.4371 11.5852 15.4371 11.4523V9.0625C15.4371 8.80352 15.2273 8.59375 14.9687 8.59375Z" fill="white"/>
<path id="Vector_2" d="M18.5035 4.94102C18.4937 4.92227 18.4812 4.90743 18.4695 4.89024C18.4355 4.84258 18.3949 4.80313 18.3457 4.77071C18.3348 4.76368 18.3297 4.75079 18.3184 4.74454L9.72422 0.0570374C9.58555 -0.0191345 9.41445 -0.0191345 9.27578 0.0570374L0.68203 4.74454C0.530858 4.82696 0.437889 4.98438 0.437889 5.15626C0.437889 5.32813 0.530858 5.48555 0.68203 5.56797L9.27578 10.2555C9.34531 10.2938 9.42305 10.3125 9.5 10.3125C9.57695 10.3125 9.65469 10.2934 9.72422 10.2555L17.6254 5.94571V11.4063C17.6254 11.6652 17.8352 11.875 18.0937 11.875C18.3523 11.875 18.5621 11.6652 18.5621 11.4063V5.15626C18.5621 5.07735 18.5379 5.00626 18.5035 4.94102ZM9.5 9.30977L1.88515 5.15626L9.5 1.00274L17.1148 5.15626L9.5 9.30977Z" fill="white"/>
<path id="Vector_3" d="M18.0937 13.2812C17.8352 13.2812 17.6254 13.491 17.6254 13.75V14.5312C17.6254 14.7902 17.8352 15 18.0937 15C18.3523 15 18.5621 14.7902 18.5621 14.5312V13.75C18.5621 13.491 18.3523 13.2812 18.0937 13.2812Z" fill="white"/>
</g>
<defs>
<clipPath id="clip0_4747_283914">
<rect width="18.1242" height="15" fill="white" transform="translate(0.437889)"/>
</clipPath>
</defs>
</svg>
