<svg width="140" height="66" viewBox="0 0 140 66" fill="none" xmlns="http://www.w3.org/2000/svg">
<g id="logo_iformalia">
<path id="Fill-1" d="M3.94475 65.5341H6.34254V45.5788H3.94475V65.5341ZM3.94475 41.8518H6.34254V37.9694H3.94475V41.8518Z" fill="#41566D"/>
<path id="Fill-2" d="M9.51381 46.9765V45.7341H13.0718V41.6188C13.0718 40.9977 13.1492 40.3765 13.4586 39.8329C13.6906 39.3671 14 38.9012 14.4641 38.5906C14.8508 38.28 15.3923 38.0471 15.8564 37.8918C16.3978 37.7365 16.9392 37.6588 17.558 37.6588C18.1768 37.6588 18.7182 37.7365 19.2597 37.8141V39.0565C18.7182 38.9012 18.0994 38.9012 17.558 38.9012C16.8619 38.9012 16.0884 39.0565 15.4696 39.4447C14.9282 39.8329 14.6188 40.5318 14.6188 41.6965V45.6565H18.7182V46.8988H14.5414V65.4565H13.0718V46.8988L9.51381 46.9765Z" fill="#41566D"/>
<path id="Fill-4" d="M22.2762 55.5953C22.2762 56.76 22.4309 57.9247 22.8177 59.0118C23.1271 60.0988 23.5912 61.0306 24.2873 61.9624C24.9061 62.8165 25.7569 63.5153 26.6851 63.9812C28.7735 64.9906 31.1713 64.9906 33.2597 63.9812C34.1878 63.5153 35.0387 62.8165 35.6575 61.9624C36.2762 61.1082 36.8177 60.0988 37.1271 59.0118C37.8232 56.76 37.8232 54.4306 37.1271 52.1788C36.8177 51.0918 36.3536 50.16 35.6575 49.2282C35.0387 48.3741 34.1878 47.6753 33.2597 47.2094C31.1713 46.2 28.7735 46.2 26.6851 47.2094C25.7569 47.6753 24.9061 48.3741 24.2873 49.2282C23.6685 50.0824 23.1271 51.0918 22.8177 52.1788C22.4309 53.2659 22.2762 54.4306 22.2762 55.5953ZM20.8066 55.5953C20.8066 54.1977 20.9613 52.8777 21.4254 51.6353C21.8122 50.4706 22.3536 49.3059 23.2044 48.3741C23.9779 47.4424 24.9061 46.6659 26.0663 46.1224C28.5414 45.0353 31.4033 45.0353 33.8785 46.1224C34.9613 46.6659 35.9669 47.4424 36.7403 48.3741C37.5138 49.3835 38.1326 50.4706 38.5193 51.6353C38.9061 52.9553 39.1381 54.2753 39.1381 55.5953C39.1381 56.9929 38.9834 58.313 38.5193 59.633C38.1326 60.8753 37.5912 61.9624 36.7403 62.8941C35.9669 63.8259 34.9613 64.6024 33.8785 65.1459C31.4033 66.233 28.5414 66.233 26.0663 65.1459C24.9834 64.6024 23.9779 63.8259 23.2044 62.8941C22.4309 61.8847 21.8122 60.7977 21.4254 59.633C20.9613 58.313 20.8066 56.9929 20.8066 55.5953Z" fill="#41566D"/>
<path id="Fill-6" d="M44.7072 50.0824H44.8619C45.0166 49.3835 45.4033 48.7624 45.8674 48.2965C46.3315 47.6753 46.9503 47.2094 47.5691 46.8212C48.2652 46.4329 49.0387 46.1224 49.8122 45.8894C50.663 45.6565 51.5138 45.5788 52.442 45.5788V47.0541C51.5138 46.9765 50.663 47.0541 49.8122 47.2871C48.7293 47.5977 47.7238 48.1412 46.9503 48.9953C46.6409 49.3835 46.3315 49.6941 46.0221 50.0824C45.7901 50.4706 45.558 50.8588 45.326 51.2471C45.1713 51.7129 45.0166 52.1788 44.8619 52.7224C44.7845 53.3435 44.7072 54.0424 44.7072 54.6635V65.5341H43.2376V45.6565H44.7072V50.0824Z" fill="#41566D"/>
<path id="Fill-8" d="M54.7624 45.6565H56.232V49.6941H56.3094C56.4641 49.0729 56.6961 48.4518 57.0829 47.9082C57.4696 47.3647 57.9337 46.8988 58.4751 46.4329C59.0166 46.0447 59.6354 45.6565 60.3315 45.5012C61.0276 45.2682 61.7238 45.1906 62.4972 45.1906C63.3481 45.1906 64.1989 45.2682 64.9724 45.5788C65.5912 45.8118 66.2099 46.1224 66.7514 46.5106C67.2155 46.8988 67.6022 47.3647 67.9116 47.8306C68.1436 48.2965 68.3757 48.84 68.5304 49.3835H68.6077C69.0718 48.1412 69.9227 47.0541 71.0055 46.2C72.1657 45.4235 73.558 45.1129 74.9503 45.1129C75.8011 45.1129 76.6519 45.2682 77.4254 45.5012C78.1989 45.7341 78.8177 46.2 79.3591 46.7435C79.9779 47.3647 80.3646 48.0635 80.674 48.84C80.9834 49.7718 81.1381 50.8588 81.1381 51.8682V65.3788H79.6685V51.7906C79.7459 50.7812 79.5138 49.7718 79.1271 48.84C78.8177 48.2188 78.3536 47.5977 77.7348 47.2094C77.2707 46.8988 76.7293 46.6659 76.1878 46.5106C75.8011 46.4329 75.4144 46.3553 74.9503 46.3553C74.0994 46.3553 73.2486 46.5106 72.4751 46.8212C71.7017 47.1318 71.0829 47.5977 70.5414 48.2188C69.9226 48.9177 69.5359 49.6941 69.2265 50.5482C68.9171 51.5577 68.7624 52.6447 68.7624 53.7318V65.4565H67.2928V51.8682C67.3702 50.8588 67.1381 49.8494 66.7514 48.9177C66.442 48.2965 65.9779 47.6753 65.4365 47.2871C64.9724 46.9765 64.4309 46.7435 63.8895 46.5882C63.5028 46.5106 63.0387 46.4329 62.6519 46.4329C61.105 46.4329 59.558 47.0541 58.4751 48.1412C57.8564 48.7624 57.3149 49.5388 57.0055 50.3929C56.6188 51.4024 56.3867 52.5671 56.3867 53.6541V65.3788H54.9171C54.7624 65.5341 54.7624 45.6565 54.7624 45.6565Z" fill="#41566D"/>
<path id="Fill-10" d="M99.3149 54.2753C98.8508 54.7412 98.3094 55.0518 97.6906 55.1294C96.8398 55.2847 96.0663 55.44 95.2155 55.44L92.7403 55.6729C92.0442 55.7506 91.2707 55.8282 90.5746 55.9835C89.8784 56.1388 89.2597 56.3718 88.6409 56.6823C88.0221 56.9929 87.558 57.4588 87.2486 58.08C86.8619 58.7788 86.7072 59.5553 86.7072 60.3318C86.6298 61.5741 87.1713 62.8165 88.0994 63.5929C89.1823 64.3694 90.5746 64.7576 91.8895 64.68C93.2818 64.7576 94.674 64.4471 95.8343 63.7482C96.6851 63.2047 97.4586 62.5059 98.0773 61.6518C98.5414 60.9529 98.8508 60.1765 99.0829 59.4C99.1602 58.9341 99.2376 58.3906 99.3149 57.9247V54.2753ZM99.3149 61.5741H99.2376C99.0055 62.1953 98.6188 62.7388 98.232 63.2823C97.768 63.8259 97.2265 64.2918 96.6077 64.68C95.9116 65.1459 95.2155 65.4565 94.442 65.6118C93.5912 65.8447 92.7403 66 91.8122 65.9223C90.1105 66 88.3315 65.5341 86.9392 64.5247C85.7017 63.4376 85.0829 61.8847 85.2376 60.3318C85.1602 59.3223 85.4696 58.3129 85.9337 57.4588C86.3978 56.76 87.0166 56.1388 87.7127 55.7506C88.4088 55.2847 89.1823 55.0518 90.0331 54.8188C90.884 54.6635 91.6575 54.5082 92.5083 54.4306L94.7514 54.2753C95.6022 54.1976 96.453 54.12 97.2265 53.8871C97.768 53.8094 98.232 53.4988 98.6188 53.1882C98.9282 52.8776 99.1602 52.4894 99.1602 52.0235C99.2376 51.48 99.3149 50.8588 99.2376 50.3153C99.2376 49.7718 99.1602 49.3059 98.9282 48.84C98.6961 48.3741 98.3867 47.9082 98 47.5976C97.5359 47.2094 96.9171 46.8988 96.2983 46.7435C95.4475 46.5106 94.5967 46.4329 93.7459 46.4329C92.1989 46.3553 90.6519 46.8212 89.4144 47.7529C88.2541 48.7623 87.6354 50.2376 87.6354 51.7129H86.3204C86.2431 49.8494 87.0166 48.0635 88.4088 46.8212C89.7238 45.7341 91.5801 45.1906 93.9006 45.1906C96.221 45.1906 98 45.6565 99.1602 46.5882C100.243 47.52 100.862 48.84 100.785 50.3153V62.7388C100.785 62.9718 100.862 63.2823 100.939 63.5153C101.017 63.7482 101.171 63.9035 101.326 64.0588C101.558 64.2141 101.79 64.2918 102.099 64.2918C102.486 64.2918 102.796 64.2141 103.182 64.2141V65.4565C102.796 65.5341 102.409 65.6118 101.945 65.6118C101.481 65.6118 101.017 65.5341 100.552 65.3788C100.243 65.2235 99.9337 65.0682 99.779 64.7576C99.6243 64.4471 99.4696 64.1365 99.3923 63.8259C99.3149 63.4376 99.3149 63.0494 99.3149 62.6612V61.5741Z" fill="#41566D"/>
<path id="Fill-12" d="M106.586 65.5341H108.055V37.9694H106.586V65.5341Z" fill="#41566D"/>
<path id="Fill-14" d="M113.856 65.5341H115.326V45.6565H113.856V65.5341ZM113.856 41.9294H115.326V37.9694H113.856V41.9294Z" fill="#41566D"/>
<path id="Fill-15" d="M133.89 54.2753C133.425 54.7412 132.884 55.0518 132.265 55.1294C131.492 55.2847 130.641 55.44 129.79 55.44L127.315 55.6729C126.619 55.7506 125.845 55.8282 125.149 55.9835C124.453 56.1388 123.834 56.3718 123.215 56.6823C122.597 56.9929 122.133 57.4588 121.823 58.08C121.436 58.7788 121.204 59.5553 121.282 60.3318C121.204 61.5741 121.746 62.8165 122.674 63.5929C123.757 64.3694 125.149 64.7576 126.464 64.68C127.856 64.7576 129.249 64.4471 130.409 63.7482C131.26 63.2047 132.033 62.5059 132.652 61.6518C133.116 60.9529 133.425 60.1765 133.657 59.4C133.735 58.9341 133.812 58.3906 133.89 57.9247V54.2753ZM133.89 61.5741H133.812C133.58 62.1953 133.193 62.7388 132.807 63.2823C132.343 63.8259 131.801 64.2918 131.182 64.68C130.486 65.1459 129.79 65.4565 129.017 65.6118C128.166 65.8447 127.315 66 126.387 65.9223C124.685 66 122.906 65.5341 121.514 64.5247C120.276 63.4376 119.657 61.8847 119.812 60.3318C119.735 59.3223 120.044 58.3129 120.508 57.4588C120.972 56.76 121.591 56.1388 122.287 55.7506C122.983 55.2847 123.757 55.0518 124.608 54.8188C125.459 54.6635 126.232 54.5082 127.083 54.4306L129.326 54.2753C130.177 54.1976 131.028 54.12 131.801 53.8871C132.265 53.7318 132.807 53.4988 133.193 53.1882C133.503 52.8776 133.735 52.4894 133.735 52.0235C133.812 51.48 133.89 50.8588 133.812 50.3153C133.812 49.7718 133.735 49.3059 133.503 48.84C133.271 48.3741 132.961 47.9082 132.575 47.5976C132.111 47.2094 131.492 46.8988 130.873 46.7435C130.022 46.5106 129.171 46.4329 128.32 46.4329C126.773 46.3553 125.227 46.8212 123.989 47.7529C122.829 48.7623 122.21 50.2376 122.21 51.7129H120.74C120.663 49.8494 121.436 48.0635 122.829 46.8212C124.144 45.7341 126 45.1906 128.32 45.1906C130.641 45.1906 132.42 45.6565 133.58 46.5882C134.663 47.52 135.282 48.84 135.204 50.3153V62.7388C135.204 62.9718 135.282 63.2823 135.359 63.5153C135.436 63.7482 135.591 63.9035 135.746 64.0588C135.978 64.2141 136.21 64.2918 136.519 64.2918C136.906 64.2918 137.215 64.2141 137.602 64.2141V65.4565C137.215 65.5341 136.829 65.6118 136.365 65.6118C135.901 65.6118 135.436 65.5341 134.972 65.3788C134.663 65.2235 134.354 65.0682 134.199 64.7576C134.044 64.4471 133.89 64.1365 133.812 63.8259C133.735 63.4376 133.735 63.0494 133.735 62.6612L133.89 61.5741Z" fill="#41566D"/>
<path id="Fill-16" d="M0.696133 1.16471C0.696133 1.4753 0.850829 1.4753 0.928177 1.70824C1.31492 1.55294 1.70166 1.39765 2.0884 1.16471C2.01105 0.155297 1.23757 1.00941 0.696133 1.16471Z" fill="#DF1517"/>
<path id="Fill-17" d="M3.55801 0.62117C2.70718 1.31999 1.46961 1.70823 0.773481 2.56235C0.850829 2.63999 0.928177 2.87293 1.08287 2.95058C2.01105 2.32941 3.01658 1.70823 3.94475 1.1647C3.8674 0.931758 3.79006 0.698817 3.55801 0.62117Z" fill="#DF1517"/>
<path id="Fill-18" d="M0.618784 4.27059C0.696132 4.42589 0.850828 4.50353 0.928176 4.65883C1.779 4.1153 2.55249 3.57177 3.32597 2.87295C4.1768 2.32942 4.95028 1.70824 5.72376 1.00942C5.72376 0.854122 5.56906 0.62118 5.41436 0.543533C3.79005 1.86353 2.16575 2.95059 0.618784 4.27059Z" fill="#DF1517"/>
<path id="Fill-19" d="M7.73481 0.62117C5.72376 2.09646 3.48066 3.49411 1.46961 4.81411C1.16022 4.9694 0.773481 5.20235 0.696133 5.59058C0.773481 5.59058 0.773481 5.74588 0.850829 5.82352C1.16022 5.90117 1.54696 5.59058 1.77901 5.43529C3.94475 4.03764 5.9558 2.4847 8.12155 1.1647C8.0442 0.931758 7.8895 0.776464 7.73481 0.62117Z" fill="#DF1517"/>
<path id="Fill-20" d="M15.547 0.62117C13.0718 2.79529 10.5193 4.96941 7.8895 7.22117C5.72376 9.0847 3.40332 10.9482 1.31492 12.7341C1.08287 12.8894 0.541437 13.2 0.773481 13.6659C1.16022 13.9765 1.46961 13.3553 1.70166 13.2C5.18232 10.2494 8.66298 7.22117 12.1436 4.34823C13.4586 3.33882 14.6961 2.25176 15.9337 1.08705C15.7017 0.931758 15.779 0.62117 15.547 0.62117Z" fill="#DF1517"/>
<path id="Fill-21" d="M9.43646 0.698825C8.0442 1.94118 6.41989 2.95059 4.87293 4.1153C3.71271 4.96941 2.62983 5.74588 1.62431 6.6C1.31492 6.83294 0.696132 7.06588 0.850828 7.60941C1.31492 7.76471 1.70166 7.29883 2.01105 7.06588C4.33149 5.35765 6.65193 3.64941 8.89503 1.94118C9.28177 1.63059 9.8232 1.4753 9.9779 0.931766C9.66851 0.854119 9.74586 0.621178 9.43646 0.698825Z" fill="#DF1517"/>
<path id="Fill-22" d="M11.2155 0.69882C8.58564 3.02823 5.87845 5.28 3.17127 7.53176C2.24309 8.23058 1.39227 9.00706 0.541437 9.86117C1.08287 10.4823 1.54696 9.62823 1.9337 9.31764C4.33149 7.37647 6.65193 5.43529 8.97238 3.49411C9.90055 2.71764 10.8287 1.86353 11.6796 1.00941C11.4475 1.00941 11.6022 0.621173 11.2155 0.69882Z" fill="#DF1517"/>
<path id="Fill-23" d="M17.2486 0.698822C12.0663 5.20235 6.65193 9.86118 1.54696 14.2871C1.23757 14.52 0.696133 14.9082 0.696133 15.2965C1.08287 15.6847 1.62431 15.1412 1.85635 14.9082C5.72376 11.4918 9.66851 8.07529 13.5359 4.73647C14.9282 3.49412 16.4751 2.25176 17.7127 1.00941C17.4807 0.931763 17.558 0.698822 17.2486 0.698822Z" fill="#DF1517"/>
<path id="Fill-24" d="M19.105 0.69883C16.0111 3.41648 12.9945 6.05648 9.66851 9.00706C7.11602 11.2588 4.09945 13.8212 1.54696 15.9953C1.31492 16.2282 0.464089 16.8494 0.773481 17.16C1.08287 17.4706 1.77901 16.6165 1.9337 16.4612C2.47514 15.9953 2.93923 15.6847 3.17127 15.4518C7.19337 11.88 10.9834 8.46354 14.9282 5.04706C16.3204 3.88236 17.8674 2.64001 19.0276 1.4753C19.1823 1.32001 19.5691 1.16471 19.4144 0.854124C19.2597 0.854124 19.337 0.621183 19.105 0.69883Z" fill="#DF1517"/>
<path id="Fill-25" d="M21.5028 0.698822C18.0221 3.64941 14.6961 6.52235 10.8287 9.86118C8.12155 12.1906 5.18232 14.7529 2.32044 17.2376C1.9337 17.5482 0.309392 18.5576 0.696132 19.0235C1.00552 19.3341 1.08287 19.0235 1.39227 18.7906C7.81215 13.2776 14.232 7.60941 20.5746 2.17412C20.9613 1.78588 21.6575 1.55294 21.8122 0.931763C21.6575 0.931763 21.7348 0.698822 21.5028 0.698822Z" fill="#DF1517"/>
<path id="Fill-26" d="M1.77901 19.5671C1.46961 19.8776 0.309392 20.4988 0.850828 20.8871C1.08287 21.0424 1.16022 20.8871 1.54696 20.5765C1.9337 20.2659 2.0884 20.0329 2.24309 19.8776C5.72376 16.8494 9.04972 13.9765 12.453 11.0259C15.8564 8.07529 19.2597 4.96941 22.5083 2.09647C22.895 1.78588 23.9779 1.32 23.4365 0.698822H23.2818C16.3204 6.75529 8.81768 13.3553 1.77901 19.5671Z" fill="#DF1517"/>
<path id="Fill-27" d="M25.1381 0.698822C23.0497 2.56235 20.884 4.50353 18.7182 6.4447C12.9171 11.7247 7.03867 17.0824 1.23757 22.5176C1.00552 22.7506 0.464088 22.9835 0.77348 23.2941C1.08287 23.6047 1.39226 23.2165 1.62431 22.9835C2.47514 22.2847 3.40331 21.2753 3.94475 20.8094C7.19337 17.9365 10.2099 15.1412 13.2265 12.3459C17.0939 8.77412 21.0387 5.20235 24.8287 1.70823C25.0608 1.55294 25.5249 1.32 25.4475 0.931763C25.2155 0.931763 25.2155 0.698822 25.1381 0.698822Z" fill="#DF1517"/>
<path id="Fill-28" d="M23.3591 3.88235C16.2431 10.4047 9.20442 16.9271 2.0884 23.4494C1.77901 23.76 0.38674 24.6918 0.773481 25.08C1.16022 25.4682 1.39227 24.8471 1.62431 24.6141C2.55249 23.76 3.55801 22.9059 4.09945 22.2847C9.74586 17.0047 15.2376 12.0353 20.8066 6.91059C22.7403 5.20235 24.8287 3.41647 26.6851 1.63059C26.9171 1.39765 27.4586 1.08706 26.9945 0.698822H26.8398L23.3591 3.88235Z" fill="#DF1517"/>
<path id="Fill-29" d="M25.5249 4.03764C24.2873 5.1247 23.1271 6.21176 21.9669 7.29882C15.1602 13.5882 8.19889 19.6447 1.39227 25.9341C1.08287 26.1671 0.618785 26.5553 0.850829 26.8659C1.08287 27.1765 1.62431 26.5553 1.77901 26.4C10.9834 18.0918 19.9558 10.0941 29.0055 1.78588C29.4696 1.31999 30.0884 0.854111 29.3923 0.62117C28.0773 1.78588 26.7624 2.87293 25.5249 4.03764Z" fill="#DF1517"/>
<path id="Fill-30" d="M34.7293 3.72707C34.2652 3.96001 33.8011 4.34824 33.4144 4.73648C22.7403 14.1318 12.1436 23.6047 1.54696 33.0777C1.16022 33.3882 0.541436 33.6988 0.773481 34.0871C0.876611 34.2424 1.05709 34.2424 1.31492 34.0871C1.46961 33.9318 1.70166 33.7765 1.85635 33.6212C12.7624 23.6824 23.9006 14.1318 34.7293 4.42589C34.884 4.19295 35.2707 4.1153 34.9613 3.88236C34.884 3.88236 34.8066 3.72707 34.7293 3.72707Z" fill="#DF1517"/>
<path id="Fill-31" d="M26.2983 13.2776C18.4088 20.1882 10.2099 27.0212 2.39779 34.0094C2.24309 34.1647 1.77901 34.32 2.0884 34.3976C3.17127 34.4753 3.79006 33.5435 4.48619 32.9224C6.57459 31.1365 8.66298 29.4282 10.674 27.6424C18.6409 20.6541 26.9171 13.8212 34.7293 6.83294C34.884 6.7553 35.1934 6.6 35.116 6.36706C34.9613 6.28941 34.884 6.13412 34.7293 6.05647C31.9448 8.54118 29.0829 10.8706 26.2983 13.2776Z" fill="#DF1517"/>
<path id="Fill-32" d="M34.1105 9.16235C31.7127 11.0259 29.0055 13.3553 26.5304 15.5294C19.1823 21.8188 11.7569 27.9529 4.48619 34.2424C4.33149 34.2424 4.25414 34.4753 4.48619 34.3976C5.49171 34.5529 6.03315 33.6212 6.65193 33.0776C15.7017 25.5459 24.674 17.7035 33.6464 10.2494C33.8785 10.0165 34.4972 9.78353 34.3425 9.31765C34.2652 9.31765 34.2652 9.16235 34.1105 9.16235Z" fill="#DF1517"/>
<path id="Fill-33" d="M34.7293 11.0259C34.7293 10.8706 34.4972 11.0259 34.4972 11.1035C25.4475 18.4024 16.3204 26.0118 7.34807 33.2329C7.11602 33.3882 6.57459 33.6212 6.72928 34.0871C7.11602 34.4753 7.34807 33.9318 7.58011 33.7765C9.66851 32.0682 11.7569 30.4377 13.8453 28.7294C20.6519 23.2165 27.4586 17.4706 34.1878 12.0353C34.4972 11.8024 34.884 11.5694 35.0387 11.1812C34.884 11.2588 34.884 11.0259 34.7293 11.0259Z" fill="#DF1517"/>
<path id="Fill-34" d="M30.5525 16.1506C25.2155 20.4988 19.7238 24.9247 14.3867 29.1953C12.3757 30.8259 10.1326 32.4565 8.27624 34.0871C8.27624 34.0871 7.8895 34.2424 8.12155 34.3977C8.97238 34.6306 9.51381 33.8541 10.0552 33.3882C10.5967 32.9224 11.2155 32.5341 11.7569 32.0682C18.8729 26.3224 26.0663 20.4988 33.1823 14.8306C33.6464 14.52 34.8066 14.0541 34.2652 13.3553H34.1105C32.9503 14.3647 31.7127 15.1412 30.5525 16.1506Z" fill="#DF1517"/>
<path id="Fill-35" d="M34.1105 15.2188C30.1657 18.0918 25.9116 21.6635 21.7348 24.9247C19.7238 26.5553 17.6354 28.1082 15.6243 29.6612C13.6906 31.1365 11.7569 32.6894 9.9779 34.1647C9.9779 34.1647 9.59116 34.2424 9.82321 34.3976C10.5967 34.5529 11.1381 33.9318 11.6796 33.5435C18.7956 27.9529 25.9116 22.2847 32.9503 16.7718C33.4917 16.3835 34.1105 16.0729 34.4199 15.4518C34.2652 15.4518 34.2652 15.2188 34.1105 15.2188Z" fill="#DF1517"/>
<path id="Fill-36" d="M34.7293 17.0047C33.6464 17.7035 32.6409 18.4023 31.7127 19.2565C30.7845 19.9553 29.779 20.6541 28.8508 21.4306C23.5912 25.6235 18.0221 29.7388 12.7624 33.8541C12.6077 34.0094 12.0663 34.2423 12.2983 34.3976C13.0718 34.6306 13.4586 34.0094 14 33.6212C19.2597 29.5835 24.442 25.6235 29.547 21.6635C31.1713 20.4212 33.0276 19.1788 34.4972 17.9365C34.6519 17.7812 35.116 17.5482 34.9613 17.2376C34.884 17.16 34.8066 17.0047 34.7293 17.0047Z" fill="#DF1517"/>
<path id="Fill-37" d="M34.7293 20.0329C28.0773 24.6141 21.1934 29.5835 14.5414 34.3976H15.547C20.4199 30.8259 25.4475 27.4094 30.2431 23.9153L32.7182 22.1294C33.5691 21.5859 34.3425 20.9647 35.0387 20.2659C34.8066 20.3435 34.884 20.0329 34.7293 20.0329Z" fill="#DF1517"/>
<path id="Fill-38" d="M34.1105 21.8188C28.4641 25.9341 22.8177 30.0494 17.0939 34.0871C17.0939 34.1647 16.7845 34.32 17.0939 34.32H17.8674C22.7403 30.8259 27.6133 27.1765 32.3315 23.6824C33.105 23.2165 33.8011 22.6729 34.4199 22.0518C34.3425 22.0518 34.3425 21.8965 34.1105 21.8188Z" fill="#DF1517"/>
<path id="Fill-39" d="M34.1105 24.2259C29.3149 27.5647 24.5967 30.9812 19.9558 34.3977H20.9613C24.3646 31.9906 27.768 29.5059 31.0939 27.0988C32.3315 26.4 33.4144 25.5459 34.4199 24.6141C34.2652 24.5365 34.3425 24.2259 34.1105 24.2259Z" fill="#DF1517"/>
<path id="Fill-40" d="M34.0332 26.0118C32.3315 27.4094 30.3978 28.8071 28.6188 30.2047C27.0718 31.4471 25.4475 32.6118 24.0553 33.7765C23.9006 33.9318 23.4365 34.2424 23.6685 34.32H24.442C26.9171 32.3012 29.547 30.36 32.0221 28.3412C32.8729 27.72 33.7238 27.0212 34.4972 26.2447C34.1878 26.3224 34.3425 26.0118 34.0332 26.0118Z" fill="#DF1517"/>
<path id="Fill-41" d="M33.9558 28.4965C31.8674 30.36 29.547 31.9906 27.5359 33.9318C27.6906 34.0094 27.6906 34.1647 27.8453 34.32C29.0055 33.3882 30.0884 32.5341 31.1713 31.68C32.2541 30.8259 33.337 29.8165 34.3425 28.8847C34.3425 28.6518 34.2652 28.4965 33.9558 28.4965Z" fill="#DF1517"/>
<path id="Fill-42" d="M33.9558 29.7388C32.7182 31.1365 31.0939 32.6118 29.9337 33.8541C29.779 34.0094 29.3923 34.32 29.6243 34.3977H30.2431C31.7127 33 33.105 31.5247 34.4972 30.0494C34.2652 29.9718 34.3425 29.6612 33.9558 29.7388Z" fill="#DF1517"/>
<path id="Fill-43" d="M33.9558 32.0682C33.2597 32.6894 32.5635 33.2329 31.7127 33.7765C31.7901 34.0094 31.8674 34.1647 32.0994 34.32C32.8729 33.6988 33.6464 33.1553 34.4199 32.5341C34.3425 32.3012 34.3425 32.0682 33.9558 32.0682Z" fill="#DF1517"/>
<path id="Fill-44" d="M13.6906 0H13.8453C14.4641 0.621176 13.6133 0.854118 13.0718 1.39765C9.43646 4.58118 5.9558 7.60941 2.39779 10.7153C2.0884 10.9482 1.00552 12.2682 0.696132 11.7247C0.541436 11.4141 1.85635 10.4047 2.0884 10.1718C6.03315 6.75529 9.90055 3.41647 13.6906 0Z" fill="#DF1517"/>
<path id="Fill-45" d="M2.0884 1.16471C1.70166 1.39765 1.31492 1.55294 0.928177 1.70824C0.850829 1.55294 0.696133 1.4753 0.696133 1.16471C1.23757 1.00941 2.01105 0.155297 2.0884 1.16471Z" fill="#DF1517"/>
<path id="Fill-46" d="M3.94475 1.1647C2.93923 1.70823 2.01105 2.32941 1.08287 2.95058C0.928177 2.87293 0.928178 2.71764 0.773481 2.56235C1.54696 1.78588 2.70718 1.39764 3.55801 0.62117C3.79006 0.698817 3.79006 0.931758 3.94475 1.1647Z" fill="#DF1517"/>
<path id="Fill-47" d="M5.33702 0.62117C5.49171 0.698817 5.64641 0.854111 5.64641 1.08705C4.87293 1.78588 4.09945 2.32941 3.24862 2.87293C2.47514 3.49411 1.70166 4.11529 0.850829 4.65882C0.773481 4.50352 0.618785 4.42588 0.541437 4.27058C2.16575 2.95058 3.8674 1.86352 5.33702 0.62117Z" fill="#DF1517"/>
<path id="Fill-48" d="M8.12155 1.1647C5.9558 2.4847 3.94475 4.03764 1.77901 5.43529C1.54696 5.59058 1.16022 5.90117 0.850829 5.82352C0.773481 5.74588 0.773481 5.59058 0.696133 5.59058C0.773481 5.20235 1.16022 5.04705 1.46961 4.81411C3.48066 3.49411 5.72376 2.09646 7.73481 0.62117C7.96685 0.698817 8.0442 0.931758 8.12155 1.1647Z" fill="#DF1517"/>
<path id="Fill-49" d="M15.9337 1.00942C14.7735 2.17412 13.5359 3.26118 12.221 4.27059C8.74033 7.14353 5.25967 10.1718 1.77901 13.1224C1.54696 13.2776 1.23757 13.8988 0.85083 13.5882C0.618785 13.1224 1.16022 12.8118 1.39227 12.6565C3.48066 10.8706 5.80111 9.00706 7.96685 7.14353C10.5193 4.96942 13.1492 2.71765 15.6243 0.543533C15.779 0.62118 15.7017 0.931769 15.9337 1.00942Z" fill="#DF1517"/>
<path id="Fill-50" d="M9.90055 0.931766C9.74586 1.4753 9.20442 1.63059 8.81768 1.94118C6.57458 3.57177 4.25414 5.35765 1.9337 7.06588C1.62431 7.29883 1.23757 7.76471 0.77348 7.60941C0.618784 7.06588 1.23757 6.83294 1.54696 6.6C2.62983 5.82353 3.71271 4.96941 4.79558 4.1153C6.34254 2.95059 7.96685 1.86353 9.35912 0.698825C9.74586 0.621178 9.66851 0.854119 9.90055 0.931766Z" fill="#DF1517"/>
<path id="Fill-51" d="M11.6796 1.00941C10.9061 1.86353 9.9779 2.64 8.97238 3.49412C6.65193 5.43529 4.33149 7.29882 1.9337 9.31765C1.62431 9.62823 1.08287 10.4047 0.541437 9.86117C1.31492 9.00706 2.24309 8.23059 3.17127 7.53176C5.80111 5.35765 8.50829 3.02823 11.2155 0.698822C11.6022 0.543528 11.4475 0.931763 11.6796 1.00941Z" fill="#DF1517"/>
<path id="Fill-52" d="M17.7127 1.00941C16.3978 2.32941 14.9282 3.49412 13.5359 4.73647C9.66851 8.07529 5.72376 11.4141 1.85635 14.9082C1.62431 15.1412 1.08287 15.6847 0.696133 15.2965C0.696133 14.9082 1.23757 14.5976 1.54696 14.2871C6.65193 9.86118 12.0663 5.20235 17.2486 0.698822C17.558 0.698822 17.4807 0.931763 17.7127 1.00941Z" fill="#DF1517"/>
<path id="Fill-53" d="M19.4144 0.931763C19.5691 1.24235 19.1823 1.39765 19.0276 1.55294C17.7901 2.79529 16.2431 3.96 14.9282 5.1247C10.9834 8.54117 7.19337 11.9576 3.17127 15.5294C2.93923 15.7624 2.47514 16.0729 1.9337 16.5388C1.77901 16.6941 1.16022 17.5482 0.773481 17.2376C0.386741 16.9271 1.31492 16.3059 1.54696 16.0729C4.0221 13.8212 7.03867 11.3365 9.66851 9.0847C12.9945 6.13412 16.0111 3.41647 19.105 0.776469C19.337 0.621175 19.2597 0.931763 19.4144 0.931763Z" fill="#DF1517"/>
<path id="Fill-54" d="M21.8122 0.931763C21.6575 1.55294 21.0387 1.78588 20.5746 2.17412C14.3094 7.68706 7.81215 13.2776 1.39227 18.7906C1.08287 19.0235 1.00552 19.3341 0.696132 19.0235C0.309392 18.6353 1.9337 17.6259 2.32044 17.2376C5.18232 14.7529 8.0442 12.1906 10.8287 9.86118C14.6961 6.52235 18.0221 3.57176 21.5028 0.698822C21.7348 0.698822 21.7348 0.931763 21.8122 0.931763Z" fill="#DF1517"/>
<path id="Fill-55" d="M23.2818 0.698822H23.4365C23.9779 1.32 22.895 1.70823 22.5083 2.09647C19.1823 4.96941 15.779 8.15294 12.453 11.0259C9.12707 13.8988 5.72376 16.8494 2.24309 19.8776C2.0884 20.0329 1.85635 20.3435 1.54696 20.5765C1.23757 20.8094 1.08287 21.0424 0.850828 20.8871C0.309391 20.4988 1.39226 19.8776 1.779 19.5671C8.81768 13.3553 16.3204 6.75529 23.2818 0.698822Z" fill="#DF1517"/>
<path id="Fill-56" d="M25.4475 0.931763C25.5249 1.32 25.0608 1.47529 24.8287 1.70823C21.0387 5.1247 17.0939 8.77412 13.2265 12.3459C10.1326 15.2188 7.11602 17.9365 3.94475 20.8094C3.40332 21.2753 2.47514 22.2071 1.62431 22.9835C1.39227 23.2165 1.00553 23.5271 0.773481 23.2941C0.541437 23.0612 1.00553 22.7506 1.23757 22.5176C6.96133 17.0824 12.9171 11.8024 18.7182 6.4447C20.884 4.50353 23.0497 2.64 25.1381 0.698822C25.2928 0.698822 25.2928 0.854116 25.4475 0.931763Z" fill="#DF1517"/>
<path id="Fill-57" d="M26.9171 0.698822H27.0718C27.5359 1.08706 26.9945 1.39765 26.7624 1.63059C24.9061 3.41647 22.8177 5.20235 20.884 6.98823C15.3149 12.1129 9.8232 17.0824 4.1768 22.3624C3.55801 22.9059 2.55249 23.8376 1.70166 24.6918C1.46961 24.9247 1.16022 25.4682 0.85083 25.1576C0.541437 24.8471 1.85635 23.8376 2.16575 23.5271C9.28177 17.0047 16.3978 10.4824 23.4365 3.96L26.9171 0.698822Z" fill="#DF1517"/>
<path id="Fill-58" d="M29.3149 0.698822C30.011 0.931763 29.3923 1.39765 28.9282 1.86353C19.8785 10.0941 10.9061 18.1694 1.70166 26.4776C1.62431 26.5553 1.08287 27.2541 0.77348 26.9435C0.464088 26.6329 1.00552 26.3224 1.31492 26.0118C8.12155 19.7224 15.1602 13.6659 21.8895 7.37647C23.0497 6.28941 24.2873 5.20235 25.4475 4.11529C26.6077 3.02823 28.0773 1.78588 29.3149 0.698822Z" fill="#DF1517"/>
<path id="Fill-59" d="M0 29.1177V28.9624C10.3646 19.9553 20.5746 10.4824 30.8619 1.39765C31.2486 1.08707 31.6354 0.621184 31.9448 0.854125C32.3315 1.24236 31.4033 1.70824 31.326 1.78589C28.8508 3.96001 26.6077 6.05648 24.442 7.99765C21.8122 10.3271 19.0276 12.7341 16.4751 14.9859C11.6022 19.4894 6.72928 23.9153 1.77901 28.2635C1.46961 28.5741 1.16022 28.8847 0.773481 29.1953C0.464088 29.3506 0.309392 29.4282 0 29.1177Z" fill="#DF1517"/>
<path id="Fill-60" d="M0 30.2824V30.1271C10.8287 20.6541 21.8895 10.8706 32.5635 1.32C32.7956 1.08706 33.2597 0.54353 33.7238 0.776471C33.8785 1.32 33.2597 1.55294 32.9503 1.78588C31.8674 2.71765 30.8619 3.64941 29.8564 4.58118C20.5746 12.8894 11.1381 21.1976 1.77901 29.4282C1.16022 29.9718 0.696133 30.9812 0 30.2824Z" fill="#DF1517"/>
<path id="Fill-61" d="M0 32.6894C10.9834 22.6729 22.2762 12.5012 33.2597 2.56235C33.5691 2.32941 33.9558 1.55294 34.3425 2.01882C34.4199 2.4847 33.8785 2.87294 33.5691 3.10588C28.1547 7.84235 22.895 12.6565 17.558 17.5482C12.3757 22.3623 6.96133 27.2541 1.62431 31.9906C0.928177 32.6118 0.464088 33.4659 0 32.6894Z" fill="#DF1517"/>
<path id="Fill-62" d="M34.9613 3.88236C35.2707 4.1153 34.884 4.19295 34.7293 4.42589C23.9006 14.1318 12.7624 23.6824 1.85635 33.6212C1.70166 33.7765 1.46961 33.9318 1.31492 34.0871C1.05709 34.2424 0.876611 34.2424 0.773481 34.0871C0.541436 33.6988 1.16022 33.4659 1.54696 33.0777C12.1436 23.6047 22.7403 14.1318 33.4144 4.73648C33.8011 4.34824 34.2652 4.03765 34.7293 3.72707C34.8066 3.72707 34.884 3.88236 34.9613 3.88236Z" fill="#DF1517"/>
<path id="Fill-63" d="M34.6519 6.13412C34.8066 6.21177 34.884 6.36707 35.0387 6.44471C35.116 6.67765 34.8066 6.7553 34.6519 6.91059C26.8398 13.8988 18.5635 20.7318 10.5967 27.72C8.58564 29.5059 6.49724 31.2141 4.40884 33C3.71271 33.5435 3.09392 34.5529 2.01105 34.4753C1.70166 34.3977 2.16575 34.2424 2.32044 34.0871C10.1326 27.1765 18.3315 20.3435 26.221 13.3553C29.0829 10.8706 31.9448 8.54118 34.6519 6.13412Z" fill="#DF1517"/>
<path id="Fill-64" d="M34.3425 9.31765C34.4972 9.78353 33.8785 10.0165 33.6464 10.2494C24.674 17.7035 15.7017 25.5459 6.65193 33.0776C6.03315 33.6212 5.49171 34.5529 4.48619 34.3976C4.25414 34.4753 4.33149 34.2424 4.48619 34.2424C11.7569 27.9529 19.1823 21.8188 26.5304 15.5294C29.0055 13.4329 31.6354 11.0259 34.1105 9.16235C34.1878 9.16235 34.2652 9.31765 34.3425 9.31765Z" fill="#DF1517"/>
<path id="Fill-65" d="M35.0387 11.2588C34.884 11.6471 34.4972 11.88 34.1878 12.1129C27.3812 17.5482 20.6519 23.2165 13.8453 28.8071C11.7569 30.5153 9.74586 32.1459 7.58011 33.8541C7.34807 34.0094 7.11602 34.5529 6.72928 34.1647C6.57459 33.6988 7.11602 33.4659 7.34807 33.3106C16.3204 25.9341 25.5249 18.4024 34.4972 11.1035C34.4972 11.0259 34.7293 10.8706 34.7293 11.0259C34.884 11.0259 34.884 11.1812 35.0387 11.2588Z" fill="#DF1517"/>
<path id="Fill-66" d="M34.0331 13.3553H34.1878C34.7293 13.9765 33.5691 14.4424 33.105 14.8306C25.9889 20.4988 18.7956 26.3224 11.6796 32.0682C11.1381 32.5341 10.5193 32.9224 9.9779 33.3882C9.43646 33.8541 8.89503 34.5529 8.0442 34.3977C7.81215 34.2424 8.1989 34.0871 8.1989 34.0871C10.0552 32.4565 12.221 30.8259 14.3094 29.1953C19.6464 24.9247 25.1381 20.4988 30.4751 16.1506C31.7127 15.1412 32.9503 14.3647 34.0331 13.3553Z" fill="#DF1517"/>
<path id="Fill-67" d="M34.4199 15.4518C34.1105 16.0729 33.4917 16.3835 32.9503 16.7718C25.9116 22.2847 18.7956 27.9529 11.6796 33.5435C11.1381 33.9318 10.674 34.5529 9.8232 34.3976C9.66851 34.2424 9.9779 34.1647 9.9779 34.1647C11.6796 32.6894 13.6906 31.1365 15.6243 29.6612C17.6354 28.1082 19.7238 26.5553 21.7348 24.9247C25.8343 21.6635 30.1657 18.0918 34.1105 15.2188C34.3425 15.2188 34.3425 15.3741 34.4199 15.4518Z" fill="#DF1517"/>
<path id="Fill-68" d="M34.9613 17.16C35.116 17.4706 34.6519 17.7035 34.4972 17.8588C33.0276 19.1788 31.1713 20.3435 29.547 21.5859C24.3646 25.5459 19.1823 29.5835 14 33.5435C13.5359 33.9318 13.0718 34.5529 12.2983 34.32C12.0663 34.1647 12.5304 33.9318 12.7624 33.7765C18.0221 29.6612 23.5912 25.5459 28.8508 21.3529C29.779 20.6541 30.7845 19.9553 31.7127 19.1788C32.6409 18.4024 33.7238 17.6259 34.7293 16.9271C34.8066 17.0824 34.884 17.16 34.9613 17.16Z" fill="#DF1517"/>
<path id="Fill-69" d="M35.0387 20.3435C34.3425 21.0424 33.5691 21.6635 32.7182 22.2071L30.2431 23.9929C25.4475 27.4871 20.4199 30.9035 15.547 34.4753H14.4641C21.1934 29.6612 28 24.6918 34.6519 20.1106C34.9613 20.0329 34.8066 20.3435 35.0387 20.3435Z" fill="#DF1517"/>
<path id="Fill-70" d="M34.4199 22.1294C33.8011 22.7506 33.105 23.2941 32.3315 23.76C27.6133 27.2541 22.663 30.9035 17.8674 34.3976H17.0939C16.7845 34.3976 17.0939 34.2423 17.0939 34.1647C22.8177 30.1271 28.4641 25.9341 34.0331 21.8188C34.0847 21.8188 34.1105 21.8447 34.1105 21.8965C34.2652 21.8188 34.2652 22.0518 34.4199 22.1294Z" fill="#DF1517"/>
<path id="Fill-71" d="M34.4199 24.5365C33.4144 25.4682 32.2541 26.3224 31.0939 27.0212C27.768 29.4282 24.3646 31.9129 20.9613 34.32H19.9558C24.674 30.9035 29.3923 27.4871 34.1105 24.1482C34.3425 24.2259 34.2652 24.5365 34.4199 24.5365Z" fill="#DF1517"/>
<path id="Fill-72" d="M34.4199 26.3224C33.7238 27.0988 32.8729 27.7976 31.9448 28.4188C29.4696 30.36 26.9171 32.3788 24.3646 34.3976H23.5912C23.3591 34.32 23.8232 34.0094 23.9779 33.8541C25.3702 32.6894 26.9945 31.4471 28.5414 30.2824C30.3204 28.8847 32.2541 27.4871 33.9558 26.0894C34.3425 26.0118 34.1878 26.3224 34.4199 26.3224Z" fill="#DF1517"/>
<path id="Fill-73" d="M34.4199 28.8071C33.4144 29.8165 32.3315 30.7482 31.2486 31.6024C30.1657 32.5341 29.0055 33.3882 27.9227 34.2424C27.8453 34.0871 27.768 33.9318 27.6133 33.8541C29.6243 31.9129 31.9448 30.2824 34.0331 28.4188C34.2652 28.4965 34.3425 28.6518 34.4199 28.8071Z" fill="#DF1517"/>
<path id="Fill-74" d="M34.4972 30.0494C33.105 31.5247 31.7127 33 30.2431 34.3977H29.6243C29.3923 34.32 29.779 34.0094 29.9337 33.8541C31.1713 32.5341 32.7956 31.0588 33.9558 29.7388C34.3425 29.6612 34.2652 29.9718 34.4972 30.0494Z" fill="#DF1517"/>
<path id="Fill-75" d="M34.4199 32.5341C33.6464 33.1553 32.8729 33.6988 32.0994 34.32C31.9448 34.1647 31.7901 34.0094 31.7127 33.7765C32.4862 33.3106 33.2597 32.6894 33.9558 32.0682C34.3425 32.0682 34.3425 32.3012 34.4199 32.5341Z" fill="#DF1517"/>
<path id="Fill-76" d="M35.6575 1.16471C35.6575 1.4753 35.8122 1.4753 35.8895 1.70824C36.2762 1.55294 36.663 1.39765 37.0497 1.16471C36.9724 0.155297 36.1989 1.00941 35.6575 1.16471Z" fill="#51AC34"/>
<path id="Fill-77" d="M38.5193 0.62117C37.6685 1.31999 36.4309 1.70823 35.6575 2.56235C35.8122 2.63999 35.8122 2.87293 35.9669 2.95058C36.895 2.32941 37.8232 1.70823 38.9061 1.1647C38.7514 0.931758 38.7514 0.698817 38.5193 0.62117Z" fill="#51AC34"/>
<path id="Fill-78" d="M35.5801 4.27059C35.6575 4.42589 35.8122 4.50353 35.8895 4.65883C36.7403 4.1153 37.5138 3.57177 38.2873 2.87295C39.1381 2.32942 39.9116 1.70824 40.6851 1.00942C40.6077 0.854122 40.5304 0.698827 40.3757 0.543533C38.7514 1.86353 37.1271 2.95059 35.5801 4.27059Z" fill="#51AC34"/>
<path id="Fill-79" d="M42.6961 0.62117C40.6851 2.09646 38.442 3.49411 36.4309 4.81411C36.1215 4.9694 35.7348 5.20235 35.6575 5.59058C35.8122 5.59058 35.7348 5.74588 35.8122 5.82352C36.1215 5.90117 36.5083 5.59058 36.7403 5.43529C38.9061 4.03764 40.9171 2.4847 43.0829 1.1647C43.0055 0.931758 42.8508 0.776464 42.6961 0.62117Z" fill="#51AC34"/>
<path id="Fill-80" d="M50.5083 0.62117C48.0332 2.79529 45.4807 4.96941 42.8508 7.22117C40.6851 9.0847 38.3646 10.9482 36.2762 12.7341C36.0442 12.8894 35.5028 13.2 35.7348 13.6659C36.1215 13.9765 36.4309 13.3553 36.663 13.2C40.1436 10.2494 43.6243 7.22117 47.105 4.34823C48.4199 3.33882 49.6575 2.25176 50.8177 1.08705C50.663 0.931758 50.663 0.62117 50.5083 0.62117Z" fill="#51AC34"/>
<path id="Fill-81" d="M44.3978 0.698825C43.0055 1.94118 41.3812 2.95059 39.8343 4.1153C38.7514 4.96941 37.6685 5.74588 36.5856 6.6C36.2762 6.83294 35.6575 7.06588 35.8122 7.60941C36.2762 7.76471 36.663 7.29883 36.9724 7.06588C39.2928 5.35765 41.6133 3.64941 43.8564 1.94118C44.2431 1.63059 44.7845 1.4753 44.9392 0.931766C44.6298 0.854119 44.7072 0.621178 44.3978 0.698825Z" fill="#51AC34"/>
<path id="Fill-82" d="M46.1768 0.69882C43.547 3.02823 40.7624 5.28 38.1326 7.53176C37.2044 8.23058 36.3536 9.00706 35.5801 9.86117C36.1215 10.4823 36.5856 9.62823 36.9724 9.31764C39.3702 7.37647 41.6906 5.43529 44.011 3.49411C44.9392 2.71764 45.8674 1.86353 46.6409 1.00941C46.4862 1.00941 46.5635 0.621173 46.1768 0.69882Z" fill="#51AC34"/>
<path id="Fill-83" d="M52.2099 0.698822C47.105 5.20235 41.6133 9.86118 36.5083 14.2871C36.1989 14.52 35.6575 14.9082 35.6575 15.2965C36.0442 15.6847 36.5856 15.1412 36.8177 14.9082C40.6851 11.4141 44.6298 8.07529 48.4972 4.73647C49.8895 3.49412 51.4365 2.25176 52.674 1.00941C52.442 0.931763 52.5193 0.698822 52.2099 0.698822Z" fill="#51AC34"/>
<path id="Fill-84" d="M54.0663 0.69883C50.9724 3.41648 47.9558 6.05648 44.6298 9.00706C42.0774 11.2588 39.0608 13.8212 36.5083 15.9953C36.2762 16.2282 35.4254 16.8494 35.7348 17.16C36.0442 17.4706 36.7403 16.6165 36.895 16.4612C37.4365 15.9953 37.9006 15.6847 38.1326 15.4518C42.1547 11.88 45.9448 8.46354 49.8895 5.04706C51.2818 3.88236 52.8287 2.64001 53.989 1.4753C54.1437 1.32001 54.5304 1.16471 54.3757 0.854124C54.221 0.854124 54.2983 0.621183 54.0663 0.69883Z" fill="#51AC34"/>
<path id="Fill-85" d="M56.4641 0.698822C53.0608 3.57176 49.6575 6.52235 45.7901 9.86118C43.0829 12.1906 40.1436 14.7529 37.3591 17.2376C36.9724 17.5482 35.3481 18.5576 35.7348 19.0235C36.0442 19.3341 36.1215 19.0235 36.4309 18.7906C42.8508 13.2776 49.2707 7.60941 55.6133 2.17412C56 1.78588 56.6961 1.55294 56.8508 0.931763C56.6188 0.931763 56.6961 0.698822 56.4641 0.698822Z" fill="#51AC34"/>
<path id="Fill-86" d="M36.7403 19.5671C36.4309 19.8776 35.3481 20.4988 35.8122 20.8871C36.0442 21.0424 36.1215 20.8871 36.5083 20.5765C36.895 20.2659 37.0497 20.0329 37.2044 19.8776C40.6851 16.8494 44.0111 13.9765 47.4144 11.0259C50.8177 8.07529 54.221 4.96941 57.4696 2.09647C57.8564 1.78588 58.9392 1.32 58.3978 0.698822H58.2431C51.2818 6.75529 43.779 13.3553 36.7403 19.5671Z" fill="#51AC34"/>
<path id="Fill-87" d="M60.0994 0.698822C58.011 2.56235 55.8453 4.50353 53.6796 6.4447C47.8785 11.7247 42 17.0824 36.1989 22.5176C35.9669 22.7506 35.4254 22.9835 35.7348 23.2941C36.0442 23.6047 36.3536 23.2165 36.5856 22.9835C37.4365 22.2847 38.3646 21.2753 38.9061 20.8094C42.1547 17.9365 45.0939 15.1412 48.1878 12.3459C52.0552 8.77412 56 5.20235 59.7901 1.70823C60.0221 1.55294 60.4862 1.32 60.4088 0.931763C60.2541 0.931763 60.2541 0.698822 60.0994 0.698822Z" fill="#51AC34"/>
<path id="Fill-88" d="M58.3204 3.88235C51.2044 10.4047 44.1657 16.9271 37.0497 23.4494C36.7403 23.76 35.3481 24.6918 35.7348 25.08C36.1215 25.4682 36.3536 24.8471 36.5856 24.6141C37.5138 23.76 38.5193 22.9059 39.0608 22.2847C44.7072 17.0047 50.1989 12.0353 55.768 6.91058C57.7017 5.20235 59.7901 3.33882 61.6464 1.55293C61.8785 1.31999 62.4199 1.00941 61.9558 0.62117H61.8011L58.3204 3.88235Z" fill="#51AC34"/>
<path id="Fill-89" d="M60.4862 4.03764C59.2486 5.1247 58.0884 6.21176 56.9282 7.29882C50.1215 13.5882 43.1602 19.6447 36.3536 25.9341C36.0442 26.1671 35.5801 26.5553 35.8122 26.8659C36.0442 27.1765 36.5856 26.5553 36.7403 26.4C45.8674 18.0918 54.8398 10.0941 63.8895 1.78588C64.3536 1.31999 64.9724 0.854111 64.2762 0.62117C63.0387 1.78588 61.7238 2.95058 60.4862 4.03764Z" fill="#51AC34"/>
<path id="Fill-90" d="M69.6906 3.72707C69.2265 3.96001 68.7624 4.34824 68.3757 4.73648C57.7017 14.1318 47.105 23.6047 36.5083 33.0777C36.1215 33.3882 35.5028 33.6988 35.7348 34.0871C35.8379 34.2424 36.0184 34.2424 36.2762 34.0871C36.4309 33.9318 36.663 33.7765 36.8177 33.6212C47.7238 23.76 58.8619 14.1318 69.6906 4.42589C69.8453 4.19295 70.232 4.1153 69.9227 3.88236C69.8453 3.88236 69.768 3.72707 69.6906 3.72707Z" fill="#51AC34"/>
<path id="Fill-91" d="M61.2597 13.2776C53.3702 20.1882 45.1713 27.0212 37.3591 34.0094C37.2044 34.1647 36.7403 34.32 37.0497 34.3976C38.1326 34.4753 38.7514 33.5435 39.4475 32.9224C41.5359 31.1365 43.6243 29.4282 45.6354 27.6424C53.6022 20.6541 61.8785 13.8212 69.6906 6.83294C69.8453 6.7553 70.1547 6.6 70.0773 6.36706C69.9227 6.28941 69.8453 6.13412 69.6906 6.05647C66.9061 8.54118 64.0442 10.8706 61.2597 13.2776Z" fill="#51AC34"/>
<path id="Fill-92" d="M69.0718 9.16235C66.674 11.0259 63.9669 13.3553 61.4917 15.5294C54.1436 21.8188 46.7182 27.9529 39.4475 34.2424C39.2928 34.2424 39.2155 34.4753 39.4475 34.3976C40.453 34.5529 40.9945 33.6212 41.6133 33.0776C50.663 25.5459 59.6354 17.7035 68.6077 10.2494C68.8398 10.0165 69.4586 9.78353 69.3039 9.31765C69.2265 9.31765 69.1492 9.16235 69.0718 9.16235Z" fill="#51AC34"/>
<path id="Fill-93" d="M69.6906 11.0259C69.6906 10.8706 69.4586 11.0259 69.4586 11.1035C60.4088 18.4024 51.2818 26.0118 42.3094 33.2329C42.0773 33.3882 41.5359 33.6212 41.6906 34.0871C42 34.4753 42.3094 33.9318 42.5414 33.7765C44.6298 32.0682 46.7182 30.4377 48.8066 28.7294C55.6133 23.2165 62.4199 17.4706 69.1492 12.0353C69.4586 11.8024 69.8453 11.5694 70 11.1812C69.8453 11.2588 69.8453 11.0259 69.6906 11.0259Z" fill="#51AC34"/>
<path id="Fill-94" d="M65.5138 16.1506C60.1768 20.4988 54.6851 24.9247 49.3481 29.1953C47.337 30.8259 45.0939 32.4565 43.2376 34.0871C43.2376 34.0871 42.8508 34.2424 43.0829 34.3977C43.9337 34.6306 44.4751 33.8541 45.0166 33.3882C45.558 32.9224 46.1768 32.5341 46.7182 32.0682C53.8343 26.3224 61.0276 20.4988 68.1436 14.8306C68.6077 14.52 69.768 14.0541 69.2265 13.3553H69.0718C67.9116 14.3647 66.674 15.1412 65.5138 16.1506Z" fill="#51AC34"/>
<path id="Fill-95" d="M69.0718 15.2188C65.1271 18.0918 60.8729 21.6635 56.6961 24.9247C54.6851 26.5553 52.5967 28.1082 50.5856 29.6612C48.5746 31.2141 46.6409 32.6894 44.9392 34.1647C44.9392 34.1647 44.5525 34.2424 44.7845 34.3976C45.558 34.5529 46.0994 33.9318 46.6409 33.5435C53.7569 27.9529 60.8729 22.2847 67.9116 16.7718C68.3757 16.3835 69.0718 16.0729 69.3812 15.4518C69.2265 15.4518 69.2265 15.2188 69.0718 15.2188Z" fill="#51AC34"/>
<path id="Fill-96" d="M69.6906 17.0047C68.6077 17.7035 67.6022 18.4023 66.674 19.2565C65.7459 19.9553 64.7403 20.6541 63.8122 21.4306C58.5525 25.6235 52.9834 29.7388 47.7238 33.8541C47.5691 34.0094 47.0276 34.2423 47.2597 34.3976C48.0331 34.6306 48.4972 34.0094 48.9613 33.6212L64.5083 21.6635C66.1326 20.4212 67.989 19.1788 69.4586 17.9365C69.6133 17.7812 70.0773 17.5482 69.9227 17.2376C69.8453 17.16 69.768 17.0047 69.6906 17.0047Z" fill="#51AC34"/>
<path id="Fill-97" d="M69.6906 20.0329C63.0387 24.6141 56.1547 29.5835 49.5028 34.3976H50.5083C55.3812 30.8259 60.4088 27.4094 65.2044 23.9153L67.6796 22.1294C68.5304 21.5859 69.3039 20.9647 70.0773 20.2659C69.768 20.3435 69.8453 20.0329 69.6906 20.0329Z" fill="#51AC34"/>
<path id="Fill-98" d="M69.0718 21.8188C63.4254 25.9341 57.779 30.0494 52.0552 34.0871C52.0552 34.1647 51.7459 34.32 52.0552 34.32H52.8287C57.6243 30.8259 62.5746 27.1765 67.2928 23.6824C68.0663 23.2165 68.7624 22.6729 69.3812 22.0518C69.3039 22.0518 69.3039 21.8965 69.0718 21.8188Z" fill="#51AC34"/>
<path id="Fill-99" d="M69.0718 24.2259C64.2762 27.5647 59.558 30.9812 54.9171 34.3977H55.9227C59.326 31.9906 62.7293 29.5059 66.0552 27.0988C67.2928 26.4 68.3757 25.5459 69.3812 24.6141C69.2265 24.5365 69.3039 24.2259 69.0718 24.2259Z" fill="#51AC34"/>
<path id="Fill-100" d="M68.9945 26.0118C67.2928 27.4094 65.3591 28.8071 63.5801 30.2047C62.0331 31.4471 60.4088 32.6118 59.0166 33.7765C58.8619 33.9318 58.3978 34.2424 58.6298 34.32H59.4033C61.8785 32.3012 64.5083 30.36 66.9834 28.3412C67.9116 27.72 68.6851 27.0212 69.4586 26.2447C69.2265 26.3224 69.3039 26.0118 68.9945 26.0118Z" fill="#51AC34"/>
<path id="Fill-101" d="M68.9171 28.4965C66.8287 30.36 64.5083 31.9906 62.4972 33.9318C62.6519 34.0094 62.6519 34.1647 62.8066 34.32C63.8895 33.3882 65.0497 32.5341 66.1326 31.68C67.2155 30.8259 68.2983 29.8941 69.3812 28.8847C69.3039 28.6518 69.2265 28.4965 68.9171 28.4965Z" fill="#51AC34"/>
<path id="Fill-102" d="M68.9171 29.7388C67.6796 31.1365 66.1326 32.6118 64.895 33.8541C64.7403 34.0094 64.3536 34.32 64.5856 34.3977H65.2044C66.674 33 68.0663 31.5247 69.4586 30.0494C69.2265 29.9718 69.3039 29.6612 68.9171 29.7388Z" fill="#51AC34"/>
<path id="Fill-103" d="M68.9171 32.0682C68.221 32.6894 67.5249 33.2329 66.7514 33.7765C66.8287 34.0094 66.9061 34.1647 67.1381 34.32C67.9116 33.6988 68.6851 33.1553 69.4586 32.5341C69.3039 32.3012 69.3039 32.0682 68.9171 32.0682Z" fill="#51AC34"/>
<path id="Fill-104" d="M48.6519 0H48.8066C49.4254 0.621176 48.5746 0.854118 48.0331 1.39765C44.3978 4.58118 40.9171 7.60941 37.3591 10.7153C37.0497 10.9482 35.9668 12.2682 35.6575 11.7247C35.5028 11.4141 36.8177 10.4047 37.0497 10.1718C40.9945 6.75529 44.8619 3.41647 48.6519 0Z" fill="#51AC34"/>
<path id="Fill-105" d="M37.0497 1.16471C36.663 1.39765 36.2762 1.55294 35.8895 1.70824C35.8122 1.55294 35.6575 1.4753 35.6575 1.16471C36.1989 1.00941 36.9724 0.155297 37.0497 1.16471Z" fill="#51AC34"/>
<path id="Fill-106" d="M38.9061 1.1647C37.9006 1.70823 36.9724 2.32941 35.9669 2.95058C35.8122 2.87293 35.8122 2.71764 35.6575 2.56235C36.4309 1.78588 37.6685 1.39764 38.5193 0.62117C38.7514 0.698817 38.7514 0.931758 38.9061 1.1647Z" fill="#51AC34"/>
<path id="Fill-107" d="M40.2983 0.62117C40.453 0.698817 40.5304 0.854111 40.6077 1.08705C39.9116 1.78588 39.0608 2.32941 38.2099 2.87293C37.4365 3.49411 36.663 4.11529 35.8122 4.65882C35.7348 4.50352 35.6575 4.42588 35.5028 4.27058C37.1271 2.95058 38.8287 1.86352 40.2983 0.62117Z" fill="#51AC34"/>
<path id="Fill-108" d="M43.0829 1.1647C40.9171 2.4847 38.9061 4.03764 36.7403 5.43529C36.5083 5.59058 36.1215 5.90117 35.8122 5.82352C35.7348 5.74588 35.8122 5.59058 35.6575 5.59058C35.7348 5.20235 36.1215 5.04705 36.4309 4.81411C38.442 3.49411 40.6851 2.09646 42.6961 0.62117C42.9282 0.698817 43.0055 0.931758 43.0829 1.1647Z" fill="#51AC34"/>
<path id="Fill-109" d="M50.895 1.00942C49.7348 2.17412 48.4972 3.26118 47.1823 4.27059C43.7017 7.14353 40.221 10.1718 36.7403 13.1224C36.5083 13.2776 36.1989 13.8988 35.8122 13.5882C35.5801 13.1224 36.1215 12.8118 36.3536 12.6565C38.442 10.8706 40.7624 9.00706 42.9282 7.14353C45.4807 4.96942 48.1105 2.71765 50.5856 0.543533C50.663 0.62118 50.663 0.931769 50.895 1.00942Z" fill="#51AC34"/>
<path id="Fill-110" d="M44.8619 0.931766C44.7072 1.4753 44.1657 1.63059 43.779 1.94118C41.5359 3.57177 39.2155 5.35765 36.895 7.06588C36.5856 7.29883 36.1989 7.76471 35.7348 7.60941C35.5801 7.06588 36.1989 6.83294 36.5083 6.6C37.5912 5.82353 38.674 4.96941 39.7569 4.1153C41.3039 2.95059 42.9282 1.86353 44.3204 0.698825C44.7072 0.621178 44.6298 0.854119 44.8619 0.931766Z" fill="#51AC34"/>
<path id="Fill-111" d="M46.6409 1.00941C45.8674 1.86353 44.9392 2.64 44.011 3.49412C41.6906 5.43529 39.3702 7.29882 36.9724 9.31765C36.663 9.62823 36.1215 10.4047 35.5801 9.86117C36.3536 9.00706 37.2818 8.23059 38.1326 7.53176C40.7624 5.35765 43.4696 3.02823 46.1768 0.698822C46.5635 0.543528 46.4088 0.931763 46.6409 1.00941Z" fill="#51AC34"/>
<path id="Fill-112" d="M52.674 1.00941C51.3591 2.32941 49.8895 3.49412 48.4972 4.73647C44.6298 8.07529 40.6851 11.4141 36.8177 14.9082C36.5856 15.1412 36.0442 15.6847 35.6575 15.2965C35.6575 14.9082 36.1989 14.5976 36.5083 14.2871C41.6133 9.86118 47.105 5.20235 52.2099 0.698822C52.5193 0.698822 52.442 0.931763 52.674 1.00941Z" fill="#51AC34"/>
<path id="Fill-113" d="M54.3757 0.931763C54.5304 1.24235 54.1436 1.39765 53.989 1.55294C52.7514 2.79529 51.2044 3.96 49.8895 5.1247C45.9448 8.54117 42.1547 11.9576 38.1326 15.5294C37.9006 15.7624 37.4365 16.0729 36.895 16.5388C36.7403 16.6941 36.1215 17.5482 35.7348 17.2376C35.3481 16.9271 36.2762 16.3059 36.5083 16.0729C38.9834 13.8212 42 11.3365 44.6298 9.0847C47.9558 6.13412 50.9724 3.41647 54.0663 0.776469C54.2983 0.621175 54.221 0.931763 54.3757 0.931763Z" fill="#51AC34"/>
<path id="Fill-114" d="M56.7735 0.931763C56.6188 1.55294 56 1.78588 55.5359 2.17412C49.2707 7.68706 42.7735 13.2776 36.3536 18.7906C36.0442 19.0235 35.9668 19.3341 35.6575 19.0235C35.2707 18.6353 36.895 17.6259 37.2818 17.2376C40.1436 14.7529 43.0055 12.1906 45.7127 9.86118C49.5801 6.52235 52.9061 3.57176 56.3867 0.698822C56.6188 0.698822 56.6188 0.931763 56.7735 0.931763Z" fill="#51AC34"/>
<path id="Fill-115" d="M58.2431 0.698822H58.3978C58.9392 1.32 57.8564 1.70823 57.4696 2.09647C54.1436 4.96941 50.7403 8.15294 47.4144 11.0259C44.0884 13.8988 40.6851 16.7718 37.2044 19.8776C37.0497 20.0329 36.8177 20.3435 36.5083 20.5765C36.1989 20.8094 36.0442 21.0424 35.8122 20.8871C35.2707 20.4988 36.3536 19.8776 36.7403 19.5671C43.779 13.3553 51.2818 6.75529 58.2431 0.698822Z" fill="#51AC34"/>
<path id="Fill-116" d="M60.4088 0.931763C60.4862 1.32 60.0221 1.47529 59.7901 1.70823C56 5.1247 52.0552 8.77412 48.1878 12.3459C45.0939 15.2188 42.0773 17.9365 38.9061 20.8094C38.3646 21.2753 37.4365 22.2071 36.5856 22.9835C36.3536 23.2165 35.9669 23.5271 35.7348 23.2941C35.5028 23.0612 35.9669 22.7506 36.1989 22.5176C41.9227 17.0824 47.8785 11.8024 53.6796 6.4447C55.8453 4.50353 58.011 2.64 60.0994 0.698822C60.2541 0.698822 60.2541 0.854116 60.4088 0.931763Z" fill="#51AC34"/>
<path id="Fill-117" d="M61.8011 0.698822H61.9558C62.4199 1.08706 61.8785 1.39765 61.6464 1.63059C59.7901 3.41647 57.6243 5.20235 55.768 6.98823C50.1989 12.1129 44.7072 17.0824 39.0608 22.3624C38.442 22.9059 37.4365 23.8376 36.5856 24.6918C36.3536 24.9247 36.0442 25.4682 35.7348 25.1576C35.4254 24.8471 36.7403 23.8376 37.0497 23.5271C44.1657 17.0047 51.2044 10.4824 58.3204 3.96L61.8011 0.698822Z" fill="#51AC34"/>
<path id="Fill-118" d="M64.2762 0.698822C64.9724 0.931763 64.3536 1.39765 63.8895 1.86353C54.8398 10.0941 45.8674 18.1694 36.663 26.4776C36.5083 26.5553 36.0442 27.2541 35.7348 26.9435C35.4254 26.6329 35.9669 26.3224 36.2762 26.0118C43.0829 19.7224 50.1215 13.6659 56.8508 7.37647C58.011 6.28941 59.2486 5.20235 60.4088 4.11529C61.5691 3.02823 63.0387 1.78588 64.2762 0.698822Z" fill="#51AC34"/>
<path id="Fill-119" d="M34.9613 29.1177V28.9624C45.326 19.9553 55.5359 10.4824 65.8232 1.39765C66.2099 1.08707 66.5967 0.621184 66.9061 0.854125C67.2928 1.24236 66.3646 1.70824 66.2873 1.78589C63.8122 3.96001 61.5691 6.05648 59.4033 7.99765C56.7735 10.3271 53.989 12.7341 51.5138 14.9859C46.6409 19.4894 41.768 23.9153 36.8177 28.2635C36.5083 28.5741 36.1989 28.8847 35.8122 29.1953C35.4254 29.3506 35.2707 29.4282 34.9613 29.1177Z" fill="#51AC34"/>
<path id="Fill-120" d="M34.9613 30.2824V30.1271C45.7901 20.6541 56.8508 10.8706 67.5249 1.32C67.7569 1.08706 68.221 0.54353 68.6851 0.776471C68.8398 1.32 68.221 1.55294 67.9116 1.78588C66.8287 2.71765 65.8232 3.64941 64.8177 4.58118C55.5359 12.8894 46.0994 21.1976 36.7403 29.4282C36.1989 29.9718 35.6575 30.9812 34.9613 30.2824Z" fill="#51AC34"/>
<path id="Fill-121" d="M34.9613 32.6894C45.9448 22.6729 57.2376 12.5012 68.221 2.56235C68.5304 2.32941 68.9171 1.55294 69.3039 2.01882C69.3812 2.4847 68.8398 2.87294 68.5304 3.10588C63.116 7.84235 57.8564 12.6565 52.5193 17.5482C47.337 22.3623 41.9227 27.2541 36.5856 31.9906C35.8895 32.6118 35.3481 33.4659 34.9613 32.6894Z" fill="#51AC34"/>
<path id="Fill-122" d="M69.9227 3.88236C70.232 4.1153 69.8453 4.19295 69.6906 4.42589C58.8619 14.1318 47.7238 23.6824 36.8177 33.6212C36.663 33.7765 36.5083 33.9318 36.2762 34.0871C36.0184 34.2424 35.8379 34.2424 35.7348 34.0871C35.5028 33.6988 36.1215 33.4659 36.5083 33.0777C47.105 23.6047 57.7017 14.1318 68.3757 4.73648C68.7624 4.34824 69.2265 4.03765 69.6906 3.72707C69.8453 3.72707 69.8453 3.88236 69.9227 3.88236Z" fill="#51AC34"/>
<path id="Fill-123" d="M69.6133 6.13412C69.768 6.21177 69.8453 6.36707 70 6.44471C70.0773 6.67765 69.768 6.7553 69.6133 6.91059C61.8011 13.8988 53.5249 20.7318 45.558 27.72C43.547 29.5059 41.4586 31.2141 39.3702 33C38.674 33.5435 38.0552 34.5529 36.9724 34.4753C36.663 34.3977 37.1271 34.2424 37.2818 34.0871C45.0166 27.1765 53.2928 20.3435 61.1823 13.3553C64.0442 10.8706 66.9061 8.54118 69.6133 6.13412Z" fill="#51AC34"/>
<path id="Fill-124" d="M69.3039 9.31765C69.4586 9.78353 68.8398 10.0165 68.6077 10.2494C59.6354 17.7035 50.663 25.5459 41.6133 33.0776C40.9945 33.6212 40.453 34.5529 39.4475 34.3976C39.2155 34.4753 39.2928 34.2424 39.4475 34.2424C46.7182 27.9529 54.1436 21.8188 61.4917 15.5294C63.9669 13.4329 66.5967 11.0259 69.0718 9.16235C69.1492 9.16235 69.2265 9.31765 69.3039 9.31765Z" fill="#51AC34"/>
<path id="Fill-125" d="M70 11.2588C69.8453 11.6471 69.4586 11.88 69.1492 12.1129C62.3425 17.5482 55.5359 23.2165 48.8066 28.8071C46.7182 30.5153 44.6298 32.1459 42.5414 33.8541C42.3094 34.0094 42.0773 34.5529 41.6906 34.1647C41.5359 33.6988 42.0773 33.4659 42.3094 33.3106C51.2818 26.0118 60.4862 18.48 69.4586 11.1812C69.4586 11.1035 69.6906 10.9482 69.6906 11.1035C69.8453 11.0259 69.8453 11.1812 70 11.2588Z" fill="#51AC34"/>
<path id="Fill-126" d="M68.9945 13.3553H69.1492C69.6906 13.9765 68.5304 14.4424 68.0663 14.8306C60.9503 20.4988 53.7569 26.3224 46.6409 32.0682C46.0994 32.5341 45.558 32.9224 44.9392 33.3882C44.3204 33.8541 43.8564 34.5529 43.0055 34.3977C42.7735 34.2424 43.1602 34.0871 43.1602 34.0871C45.0166 32.4565 47.1823 30.8259 49.2707 29.1953C54.6077 24.9247 60.0994 20.4988 65.4365 16.1506C66.674 15.1412 67.9116 14.3647 68.9945 13.3553Z" fill="#51AC34"/>
<path id="Fill-127" d="M69.3812 15.4518C69.0718 16.0729 68.453 16.3835 67.9116 16.7718C60.8729 22.2847 53.7569 27.9529 46.6409 33.5435C46.0994 33.9318 45.6354 34.5529 44.7845 34.3976C44.5525 34.2424 44.9392 34.1647 44.9392 34.1647C46.6409 32.6894 48.6519 31.1365 50.5856 29.6612C52.5193 28.1859 54.6851 26.5553 56.6961 24.9247C60.7956 21.6635 65.1271 18.0918 69.0718 15.2188C69.3039 15.2188 69.2265 15.3741 69.3812 15.4518Z" fill="#51AC34"/>
<path id="Fill-128" d="M69.9226 17.16C70.0773 17.4706 69.6133 17.7035 69.4586 17.8588C67.9116 19.1788 66.1326 20.3435 64.5083 21.5859C59.326 25.5459 54.1436 29.5835 48.9613 33.5435C48.4972 33.9318 48.0331 34.5529 47.2597 34.32C47.0276 34.1647 47.4917 33.9318 47.7238 33.7765C52.9834 29.6612 58.5525 25.5459 63.8122 21.3529C64.7403 20.6541 65.6685 19.9553 66.674 19.1788C67.6022 18.4024 68.6851 17.6259 69.6906 16.9271C69.768 17.0824 69.8453 17.16 69.9226 17.16Z" fill="#51AC34"/>
<path id="Fill-129" d="M70 20.3435C69.3039 21.0424 68.453 21.6635 67.6022 22.2071L65.1271 23.9929C60.3315 27.4871 55.3039 30.9035 50.4309 34.4753H49.4254C56.0773 29.6612 63.0387 24.6918 69.6133 20.1106C69.9227 20.0329 69.8453 20.3435 70 20.3435Z" fill="#51AC34"/>
<path id="Fill-130" d="M69.3812 22.1294C68.7624 22.7506 68.0663 23.2941 67.2928 23.76C62.5746 27.2541 57.6243 30.9035 52.8287 34.3976H52.0552C51.7459 34.3976 52.0552 34.2423 52.0552 34.1647C57.779 30.1271 63.4254 25.9341 68.9945 21.8188C69.046 21.8188 69.0718 21.8447 69.0718 21.8965C69.2265 21.8188 69.2265 22.0518 69.3812 22.1294Z" fill="#51AC34"/>
<path id="Fill-131" d="M69.3812 24.5365C68.3757 25.4682 67.2155 26.3224 66.0552 27.0212C62.7293 29.4282 59.2486 31.9129 55.9227 34.32H54.9171C59.6354 30.9035 64.3536 27.4871 69.0718 24.1482C69.3039 24.2259 69.2265 24.5365 69.3812 24.5365Z" fill="#51AC34"/>
<path id="Fill-132" d="M69.3812 26.3224C68.6851 27.0988 67.8343 27.7976 66.9061 28.4188C64.4309 30.36 61.8785 32.3788 59.326 34.3976H58.5525C58.3204 34.32 58.7845 34.0094 58.9392 33.8541C60.3315 32.6894 61.9558 31.4471 63.5028 30.2824C65.2818 28.8847 67.2155 27.4871 68.9171 26.0894C69.3039 26.0118 69.1492 26.3224 69.3812 26.3224Z" fill="#51AC34"/>
<path id="Fill-133" d="M69.3812 28.8071C68.3757 29.8165 67.2928 30.7482 66.2099 31.6024C65.1271 32.5341 63.9669 33.3882 62.884 34.2424C62.7293 34.0871 62.7293 33.9318 62.5746 33.8541C64.5856 31.9129 66.9061 30.2824 68.9945 28.4188C69.2265 28.4965 69.3039 28.6518 69.3812 28.8071Z" fill="#51AC34"/>
<path id="Fill-134" d="M69.4586 30.0494C68.0663 31.5247 66.674 33 65.2044 34.3977H64.5856C64.3536 34.32 64.7403 34.0094 64.895 33.8541C66.1326 32.5341 67.7569 31.0588 68.9171 29.7388C69.3039 29.6612 69.2265 29.9718 69.4586 30.0494Z" fill="#51AC34"/>
<path id="Fill-135" d="M69.3812 32.5341C68.6077 33.1553 67.8343 33.6988 67.0608 34.32C66.9061 34.1647 66.7514 34.0094 66.674 33.7765C67.4475 33.3106 68.221 32.6894 68.8398 32.0682C69.2265 32.0682 69.3039 32.3012 69.3812 32.5341Z" fill="#51AC34"/>
<path id="Fill-136" d="M70.6188 1.16471C70.6188 1.4753 70.7735 1.4753 70.8508 1.70824C71.2376 1.55294 71.6243 1.39765 72.0111 1.16471C71.9337 0.155297 71.1602 1.00941 70.6188 1.16471Z" fill="#3374B0"/>
<path id="Fill-137" d="M73.4807 0.62117C72.6298 1.31999 71.3923 1.70823 70.6188 2.56235C70.7735 2.63999 70.7735 2.87293 70.9282 2.95058C71.8564 2.32941 72.7845 1.70823 73.8674 1.1647C73.7127 0.931758 73.7127 0.698817 73.4807 0.62117Z" fill="#3374B0"/>
<path id="Fill-138" d="M70.5414 4.27059C70.6188 4.42589 70.7735 4.50353 70.8508 4.65883C71.7017 4.1153 72.4751 3.57177 73.2486 2.87295C74.0994 2.32942 74.8729 1.70824 75.6464 1.00942C75.5691 0.854122 75.4917 0.62118 75.337 0.543533C73.7127 1.86353 72.0884 2.95059 70.5414 4.27059Z" fill="#3374B0"/>
<path id="Fill-139" d="M77.6575 0.62117C75.6464 2.09646 73.4033 3.49411 71.3923 4.81411C71.0829 4.9694 70.6961 5.20235 70.6188 5.59058C70.7735 5.59058 70.6961 5.74588 70.7735 5.82352C71.0829 5.90117 71.4696 5.59058 71.7017 5.43529C73.8674 4.03764 75.8785 2.4847 78.0442 1.1647C77.9669 0.931758 77.8122 0.776464 77.6575 0.62117Z" fill="#3374B0"/>
<path id="Fill-140" d="M85.4696 0.62117C83.0718 2.79529 80.442 4.96941 77.8121 7.22117C75.6464 9.0847 73.326 10.9482 71.2376 12.7341C71.0055 12.8894 70.4641 13.2 70.6961 13.6659C71.0829 13.9765 71.3923 13.3553 71.6243 13.2C75.105 10.2494 78.5856 7.22117 82.0663 4.34823C83.3812 3.33882 84.6188 2.25176 85.779 1.08705C85.6243 0.931758 85.6243 0.62117 85.4696 0.62117Z" fill="#3374B0"/>
<path id="Fill-141" d="M79.3591 0.698825C77.9669 1.94118 76.3425 2.95059 74.7956 4.1153C73.7127 4.96941 72.5525 5.74588 71.547 6.6C71.2376 6.83294 70.6188 7.06588 70.7735 7.60941C71.2376 7.76471 71.6243 7.29883 71.9337 7.06588C74.2541 5.35765 76.5746 3.64941 78.8177 1.94118C79.2044 1.63059 79.7459 1.4753 79.9006 0.931766C79.5912 0.854119 79.6685 0.621178 79.3591 0.698825Z" fill="#3374B0"/>
<path id="Fill-142" d="M81.1381 0.69882C78.5083 3.02823 75.8011 5.28 73.1713 7.53176C72.2431 8.23058 71.3923 9.00706 70.6188 9.86117C71.1602 10.4823 71.6243 9.62823 72.0111 9.31764C74.4088 7.37647 76.7293 5.43529 79.0497 3.49411C79.9779 2.71764 80.9061 1.86353 81.6796 1.00941C81.4475 1.00941 81.5249 0.621173 81.1381 0.69882Z" fill="#3374B0"/>
<path id="Fill-143" d="M87.1713 0.698822C81.989 5.20235 76.5746 9.86118 71.4696 14.2871C71.1602 14.52 70.6188 14.9082 70.6188 15.2965C71.0055 15.6847 71.547 15.1412 71.779 14.9082C75.6464 11.4918 79.5912 8.07529 83.4586 4.73647C84.9282 3.49412 86.3978 2.25176 87.6354 1.00941C87.4033 0.931763 87.4807 0.698822 87.1713 0.698822Z" fill="#3374B0"/>
<path id="Fill-144" d="M89.0276 0.69883C85.9337 3.41648 82.9171 6.05648 79.5912 9.00706C77.0387 11.2588 74.0221 13.8212 71.4696 15.9953C71.2376 16.2282 70.3867 16.8494 70.6961 17.16C71.0055 17.4706 71.7017 16.6165 71.8563 16.4612C72.3978 15.9953 72.8619 15.6847 73.0939 15.4518C77.116 11.88 80.9061 8.46354 84.8508 5.04706C86.2431 3.88236 87.7901 2.64001 88.9503 1.4753C89.105 1.32001 89.4917 1.16471 89.337 0.854124C89.1823 0.854124 89.2597 0.621183 89.0276 0.69883Z" fill="#3374B0"/>
<path id="Fill-145" d="M91.4254 0.698822C87.9447 3.64941 84.6188 6.52235 80.7514 9.86118C78.0442 12.1906 75.105 14.7529 72.3204 17.2376C71.9337 17.5482 70.3094 18.5576 70.6961 19.0235C71.0055 19.3341 71.0829 19.0235 71.3923 18.7906C77.8122 13.2776 84.232 7.60941 90.5746 2.17412C90.9613 1.78588 91.6575 1.55294 91.8121 0.931763C91.5801 0.931763 91.6575 0.698822 91.4254 0.698822Z" fill="#3374B0"/>
<path id="Fill-146" d="M71.7017 19.5671C71.3923 19.8776 70.3094 20.4988 70.7735 20.8871C71.0055 21.0424 71.0829 20.8871 71.4696 20.5765C71.8564 20.2659 72.0111 20.0329 72.1657 19.8776C75.6464 16.8494 78.9724 13.9765 82.3757 11.0259C85.779 8.07529 89.1823 4.96941 92.4309 2.09647C92.8177 1.78588 93.9006 1.32 93.3591 0.698822H93.2044C86.2431 6.75529 78.7403 13.3553 71.7017 19.5671Z" fill="#3374B0"/>
<path id="Fill-147" d="M95.0608 0.698822C92.9724 2.56235 90.8066 4.50353 88.6409 6.4447C82.8398 11.7247 76.9613 17.0824 71.1602 22.5176C70.9282 22.7506 70.3867 22.9835 70.6961 23.2941C71.0055 23.6047 71.3149 23.2165 71.547 22.9835C72.3978 22.2847 73.326 21.2753 73.8674 20.8094C77.116 17.9365 80.0553 15.1412 83.1492 12.3459C87.0166 8.77412 90.9613 5.20235 94.7514 1.70823C94.9834 1.55294 95.4475 1.32 95.3702 0.931763C95.2155 0.931763 95.2155 0.698822 95.0608 0.698822Z" fill="#3374B0"/>
<path id="Fill-148" d="M93.2818 3.88235C86.2431 10.4047 79.1271 16.9271 72.011 23.4494C71.7017 23.76 70.3094 24.6918 70.6961 25.08C71.0829 25.4682 71.3149 24.8471 71.547 24.6141C72.4751 23.76 73.4807 22.9059 74.0221 22.2847C79.6685 17.0047 85.1602 12.0353 90.7293 6.91058C92.663 5.20235 94.7514 3.33882 96.6077 1.55293C96.8398 1.31999 97.3812 1.00941 96.9171 0.62117H96.7624L93.2818 3.88235Z" fill="#3374B0"/>
<path id="Fill-149" d="M95.4475 4.03764C94.2099 5.1247 93.0497 6.21176 91.8895 7.29882C85.0829 13.5882 78.1215 19.6447 71.3149 25.9341C71.0055 26.1671 70.4641 26.5553 70.7735 26.8659C71.0829 27.1765 71.547 26.5553 71.7017 26.4C80.9061 18.0918 89.8785 10.0941 98.9282 1.78588C99.3923 1.31999 100.011 0.854111 99.3149 0.62117C98 1.78588 96.6851 2.87293 95.4475 4.03764Z" fill="#3374B0"/>
<path id="Fill-150" d="M104.652 3.72707C104.188 3.96001 103.724 4.34824 103.337 4.73648C92.663 14.1318 82.0663 23.6047 71.4696 33.0777C71.0829 33.3882 70.4641 33.6988 70.6961 34.0871C70.7993 34.2424 70.9797 34.2424 71.2376 34.0871C71.3923 33.9318 71.6243 33.7765 71.779 33.6212C82.6851 23.76 93.8232 14.1318 104.652 4.42589C104.807 4.19295 105.193 4.1153 104.884 3.88236C104.729 3.88236 104.729 3.72707 104.652 3.72707Z" fill="#3374B0"/>
<path id="Fill-151" d="M96.221 13.2776C88.3315 20.1882 80.1326 27.0212 72.3204 34.0094C72.1657 34.1647 71.7017 34.32 72.011 34.3976C73.0939 34.4753 73.7127 33.5435 74.4088 32.9224C76.4972 31.1365 78.5856 29.4282 80.5967 27.6424C88.5635 20.6541 96.8398 13.8212 104.652 6.83294C104.729 6.7553 105.116 6.6 105.039 6.36706C104.884 6.28941 104.807 6.13412 104.652 6.05647C101.867 8.54118 99.0055 10.8706 96.221 13.2776Z" fill="#3374B0"/>
<path id="Fill-152" d="M104.033 9.16235C101.635 11.0259 98.9282 13.3553 96.453 15.5294C89.105 21.8188 81.6796 27.9529 74.4088 34.2424C74.2541 34.2424 74.1768 34.4753 74.4088 34.3976C75.4144 34.5529 75.9558 33.6212 76.5746 33.0776C85.6243 25.5459 94.5967 17.7035 103.569 10.2494C103.801 10.0165 104.42 9.78353 104.265 9.31765C104.188 9.31765 104.188 9.16235 104.033 9.16235Z" fill="#3374B0"/>
<path id="Fill-153" d="M104.652 11.0259C104.652 10.8706 104.42 11.0259 104.42 11.1035C95.4475 18.4024 86.2431 26.0118 77.2707 33.2329C77.0387 33.3882 76.4972 33.6212 76.6519 34.0871C77.0387 34.4753 77.2707 33.9318 77.5028 33.7765C79.5912 32.0682 81.6796 30.4377 83.768 28.7294C90.5746 23.2165 97.3812 17.4706 104.11 12.0353C104.42 11.8024 104.807 11.5694 104.961 11.1812C104.807 11.2588 104.807 11.0259 104.652 11.0259Z" fill="#3374B0"/>
<path id="Fill-154" d="M100.475 16.1506C95.1381 20.4988 89.6464 24.9247 84.3094 29.1953C82.2983 30.8259 80.0552 32.4565 78.1989 34.0871C78.1989 34.0871 77.8122 34.2424 78.0442 34.3977C78.895 34.6306 79.4365 33.8541 79.9779 33.3882C80.5193 32.9224 81.1381 32.5341 81.6796 32.0682C88.7956 26.3224 95.989 20.4988 103.105 14.8306C103.569 14.52 104.729 14.0541 104.188 13.3553H104.033C102.873 14.3647 101.635 15.1412 100.475 16.1506Z" fill="#3374B0"/>
<path id="Fill-155" d="M104.033 15.2188C100.088 18.0918 95.8343 21.6635 91.6575 24.9247C89.6464 26.5553 87.558 28.1082 85.547 29.6612C83.5359 31.2141 81.6022 32.6894 79.9006 34.1647C79.9006 34.1647 79.5912 34.2424 79.7459 34.3976C80.5193 34.5529 81.0608 33.9318 81.6022 33.5435C88.7182 27.9529 95.8343 22.2847 102.873 16.7718C103.337 16.3835 104.033 16.0729 104.343 15.4518C104.188 15.4518 104.188 15.2188 104.033 15.2188Z" fill="#3374B0"/>
<path id="Fill-156" d="M104.652 17.0047C103.569 17.7035 102.564 18.4023 101.635 19.2565C100.707 19.9553 99.7017 20.6541 98.8508 21.4306C93.5138 25.6235 88.0221 29.7388 82.7624 33.8541C82.6077 34.0094 82.0663 34.2423 82.2983 34.3976C83.0718 34.6306 83.5359 34.0094 84 33.6212L99.547 21.6635C101.171 20.4212 103.028 19.1788 104.497 17.9365C104.652 17.7812 105.116 17.5482 104.961 17.2376C104.807 17.16 104.729 17.0823 104.652 17.0047Z" fill="#3374B0"/>
<path id="Fill-157" d="M104.652 20.0329C98 24.6141 91.116 29.5835 84.4641 34.3976H85.4696C90.3425 30.8259 95.3702 27.4094 100.166 23.9153L102.564 22.1294C103.414 21.5859 104.188 20.9647 104.961 20.2659C104.729 20.3435 104.807 20.0329 104.652 20.0329Z" fill="#3374B0"/>
<path id="Fill-158" d="M104.033 21.8188C104.033 21.7671 104.007 21.7412 103.956 21.7412C98.3867 25.9341 92.7403 30.0494 87.0166 34.0871C87.0166 34.1647 86.7072 34.32 87.0166 34.32H87.7901C92.663 30.8259 97.5359 27.1765 102.331 23.6824C103.105 23.2165 103.801 22.6729 104.42 22.0518C104.265 22.0518 104.265 21.8965 104.033 21.8188Z" fill="#3374B0"/>
<path id="Fill-159" d="M104.033 24.2259C99.2376 27.5647 94.5193 30.9812 89.8011 34.3977H90.8066C94.2099 31.9906 97.6133 29.5059 100.939 27.0988C102.177 26.4 103.26 25.5459 104.265 24.6141C104.188 24.5365 104.265 24.2259 104.033 24.2259Z" fill="#3374B0"/>
<path id="Fill-160" d="M103.956 26.0118C102.254 27.4094 100.32 28.8071 98.5414 30.2047C96.9945 31.4471 95.3702 32.6118 93.9779 33.7765C93.8232 33.9318 93.3591 34.2424 93.5912 34.32H94.3646C96.8398 32.3012 99.4696 30.36 101.945 28.3412C102.796 27.72 103.646 27.0212 104.42 26.2447C104.188 26.3224 104.265 26.0118 103.956 26.0118Z" fill="#3374B0"/>
<path id="Fill-161" d="M103.878 28.4965C101.79 30.36 99.547 31.9906 97.4586 33.9318C97.6133 34.0094 97.6133 34.1647 97.768 34.32C98.8508 33.3882 100.011 32.5341 101.171 31.68C102.254 30.8259 103.337 29.8165 104.343 28.8847C104.265 28.6518 104.188 28.4965 103.878 28.4965Z" fill="#3374B0"/>
<path id="Fill-162" d="M103.878 29.7388C102.641 31.1365 101.094 32.6118 99.8564 33.8541C99.7017 34.0094 99.3149 34.32 99.547 34.3977H100.166C101.635 33 103.028 31.5247 104.42 30.0494C104.188 29.9718 104.265 29.6612 103.878 29.7388Z" fill="#3374B0"/>
<path id="Fill-163" d="M103.878 32.0682C103.182 32.6894 102.486 33.2329 101.635 33.7765C101.713 34.0094 101.79 34.1647 102.022 34.32C102.796 33.6988 103.569 33.1553 104.343 32.5341C104.265 32.3012 104.265 32.0682 103.878 32.0682Z" fill="#3374B0"/>
<path id="Fill-164" d="M83.6133 0H83.768C84.3867 0.621176 83.5359 0.854118 82.9945 1.39765C79.3591 4.58118 75.8785 7.60941 72.3204 10.7153C72.0111 10.9482 70.9282 12.2682 70.6188 11.7247C70.4641 11.4141 71.779 10.4047 72.0111 10.1718C75.9558 6.75529 79.8232 3.41647 83.6133 0Z" fill="#3374B0"/>
<path id="Fill-165" d="M72.0111 1.16471C71.6243 1.39765 71.2376 1.55294 70.8508 1.70824C70.7735 1.55294 70.6188 1.4753 70.6188 1.16471C71.1602 1.00941 71.9337 0.155297 72.0111 1.16471Z" fill="#3374B0"/>
<path id="Fill-166" d="M73.8674 1.1647C72.8619 1.70823 71.9337 2.32941 70.9282 2.95058C70.7735 2.87293 70.7735 2.71764 70.6188 2.56235C71.3923 1.78588 72.6298 1.39764 73.4807 0.62117C73.7127 0.698817 73.7127 0.931758 73.8674 1.1647Z" fill="#3374B0"/>
<path id="Fill-167" d="M75.2597 0.62117C75.4144 0.698817 75.4917 0.854111 75.5691 1.08705C74.8729 1.78588 74.0221 2.32941 73.1713 2.87293C72.3978 3.49411 71.6243 4.11529 70.7735 4.65882C70.6961 4.50352 70.6188 4.42588 70.4641 4.27058C72.0884 3.02823 73.7127 1.86352 75.2597 0.62117Z" fill="#3374B0"/>
<path id="Fill-168" d="M78.0442 1.1647C75.8785 2.4847 73.8674 4.03764 71.7017 5.43529C71.4696 5.59058 71.0829 5.90117 70.7735 5.82352C70.6961 5.74588 70.7735 5.59058 70.6188 5.59058C70.6961 5.20235 71.0829 5.04705 71.3923 4.81411C73.4033 3.49411 75.6464 2.09646 77.6575 0.62117C77.8895 0.698817 77.9669 0.931758 78.0442 1.1647Z" fill="#3374B0"/>
<path id="Fill-169" d="M85.8563 1.00942C84.6961 2.17412 83.4586 3.26118 82.1436 4.27059C78.663 7.14353 75.1823 10.1718 71.7016 13.1224C71.4696 13.2776 71.1602 13.8988 70.7735 13.5882C70.5414 13.1224 71.0829 12.8118 71.3149 12.6565C73.4033 10.8706 75.7237 9.00706 77.8895 7.14353C80.442 4.96942 83.0718 2.71765 85.547 0.543533C85.6243 0.62118 85.6243 0.931769 85.8563 1.00942Z" fill="#3374B0"/>
<path id="Fill-170" d="M79.8232 0.931766C79.7459 1.4753 79.1271 1.63059 78.7403 1.94118C76.4972 3.57177 74.1768 5.35765 71.8564 7.06588C71.547 7.29883 71.1602 7.76471 70.6961 7.60941C70.5414 7.06588 71.1602 6.83294 71.4696 6.6C72.5525 5.82353 73.6354 4.96941 74.7182 4.1153C76.2652 2.95059 77.8895 1.86353 79.2818 0.698825C79.6685 0.621178 79.5912 0.854119 79.8232 0.931766Z" fill="#3374B0"/>
<path id="Fill-171" d="M81.6022 1.00941C80.8287 1.86353 79.9006 2.64 78.9724 3.49412C76.6519 5.43529 74.3315 7.29882 71.9337 9.31765C71.6243 9.62823 71.0829 10.4047 70.5414 9.86117C71.3149 9.00706 72.2431 8.23059 73.0939 7.53176C75.7238 5.35765 78.4309 3.02823 81.0608 0.698822C81.5249 0.543528 81.4475 0.931763 81.6022 1.00941Z" fill="#3374B0"/>
<path id="Fill-172" d="M87.6354 1.00941C86.3204 2.32941 84.8508 3.49412 83.4586 4.73647C79.5912 8.07529 75.6464 11.4141 71.779 14.9082C71.547 15.1412 71.0829 15.6847 70.6188 15.2965C70.6188 14.9082 71.1602 14.5976 71.4696 14.2871C76.5746 9.86118 81.989 5.20235 87.1713 0.698822C87.4807 0.698822 87.4033 0.931763 87.6354 1.00941Z" fill="#3374B0"/>
<path id="Fill-173" d="M89.337 0.931763C89.4917 1.24235 89.105 1.39765 88.9503 1.55294C87.7127 2.79529 86.1657 3.96 84.8508 5.1247C80.9061 8.54117 77.116 11.9576 73.0939 15.5294C72.8619 15.7624 72.3978 16.0729 71.8564 16.5388C71.7017 16.6941 71.0829 17.5482 70.6961 17.2376C70.3094 16.9271 71.2376 16.3059 71.4696 16.0729C73.9447 13.8212 76.9613 11.3365 79.5912 9.0847C82.9171 6.13412 85.9337 3.41647 89.0276 0.776469C89.2597 0.621175 89.1823 0.931763 89.337 0.931763Z" fill="#3374B0"/>
<path id="Fill-174" d="M91.8121 0.931763C91.6575 1.55294 91.0387 1.78588 90.5746 2.17412C84.3094 7.68706 77.8122 13.2776 71.3923 18.7906C71.0829 19.0235 71.0055 19.3341 70.6961 19.0235C70.3094 18.6353 71.9337 17.6259 72.3204 17.2376C75.1823 14.7529 78.0442 12.1906 80.7514 9.86118C84.6188 6.52235 87.9447 3.57176 91.4254 0.698822C91.6575 0.698822 91.5801 0.854116 91.8121 0.931763Z" fill="#3374B0"/>
<path id="Fill-175" d="M93.2044 0.698822H93.3591C93.9006 1.32 92.8177 1.70823 92.4309 2.09647C89.105 4.96941 85.7017 8.15294 82.3757 11.0259C79.0497 13.8988 75.6464 16.8494 72.1657 19.8776C72.0111 20.0329 71.779 20.3435 71.4696 20.5765C71.1602 20.8094 71.0055 21.0424 70.7735 20.8871C70.232 20.4988 71.3149 19.8776 71.7017 19.5671C78.8177 13.3553 86.2431 6.75529 93.2044 0.698822Z" fill="#3374B0"/>
<path id="Fill-176" d="M95.3702 0.931763C95.4475 1.32 94.9834 1.47529 94.7514 1.70823C90.9613 5.1247 87.0166 8.77412 83.1492 12.3459C80.0552 15.2188 77.0387 17.9365 73.8674 20.8094C73.326 21.2753 72.3978 22.2071 71.547 22.9835C71.3149 23.2165 70.9282 23.5271 70.6961 23.2941C70.4641 23.0612 70.9282 22.7506 71.1602 22.5176C76.884 17.0824 82.8398 11.8024 88.6409 6.4447C90.8066 4.50353 92.9724 2.64 95.0608 0.698822C95.2155 0.698822 95.2155 0.854116 95.3702 0.931763Z" fill="#3374B0"/>
<path id="Fill-177" d="M96.8398 0.698822H96.9945C97.4586 1.08706 96.9171 1.39765 96.6851 1.63059C94.8287 3.41647 92.7403 5.20235 90.8066 6.98823C85.2376 12.1129 79.7459 17.0824 74.0995 22.3624C73.4807 22.9059 72.4751 23.8376 71.6243 24.6918C71.3923 24.9247 71.0829 25.4682 70.7735 25.1576C70.4641 24.8471 71.779 23.8376 72.0884 23.5271C79.2044 17.0047 86.2431 10.4824 93.3591 3.96L96.8398 0.698822Z" fill="#3374B0"/>
<path id="Fill-178" d="M99.2376 0.698822C99.9337 0.931763 99.3149 1.39765 98.8508 1.86353C89.8011 10.0941 80.8287 18.1694 71.6243 26.4776C71.4696 26.5553 71.0055 27.2541 70.6961 26.9435C70.3867 26.6329 70.9282 26.3224 71.2376 26.0118C78.0442 19.7224 85.0829 13.6659 91.8122 7.37647C92.9724 6.28941 94.2099 5.20235 95.3702 4.11529C96.5304 3.02823 98 1.78588 99.2376 0.698822Z" fill="#3374B0"/>
<path id="Fill-179" d="M69.9227 29.1177V28.9624C80.2099 19.9553 90.4972 10.4824 100.707 1.39765C101.094 1.08707 101.481 0.621184 101.79 0.854125C102.177 1.24236 101.249 1.70824 101.171 1.78589C98.7735 3.96001 96.453 6.05648 94.2873 7.99765C91.6575 10.3271 88.8729 12.7341 86.3204 14.9859C81.4475 19.4894 76.5746 23.9153 71.6243 28.2635C71.3149 28.5741 71.0055 28.8847 70.6188 29.1953C70.3867 29.3506 70.232 29.4282 69.9227 29.1177Z" fill="#3374B0"/>
<path id="Fill-180" d="M69.9227 30.2824V30.1271C80.7514 20.6541 91.8122 10.8706 102.486 1.32C102.718 1.08706 103.182 0.54353 103.646 0.776471C103.801 1.32 103.182 1.55294 102.873 1.78588C101.79 2.71765 100.785 3.64941 99.779 4.58118C90.4972 12.8894 81.0608 21.1976 71.7017 29.4282C71.0829 29.9718 70.6188 30.9812 69.9227 30.2824Z" fill="#3374B0"/>
<path id="Fill-181" d="M69.9227 32.6894C80.9061 22.6729 92.1989 12.5012 103.182 2.56235C103.492 2.32941 103.878 1.55294 104.265 2.01882C104.343 2.4847 103.801 2.87294 103.492 3.10588C98 7.84235 92.8177 12.6565 87.4807 17.5482C82.2983 22.3623 76.884 27.2541 71.547 31.9906C70.8508 32.6118 70.3094 33.4659 69.9227 32.6894Z" fill="#3374B0"/>
<path id="Fill-182" d="M104.884 3.88236C105.193 4.1153 104.807 4.19295 104.652 4.42589C93.8232 14.1318 82.6851 23.6824 71.779 33.6212C71.6243 33.7765 71.4696 33.9318 71.2376 34.0871C70.9797 34.2424 70.7993 34.2424 70.6961 34.0871C70.4641 33.6988 71.0829 33.4659 71.4696 33.0777C82.0663 23.6047 92.663 14.1318 103.337 4.73648C103.724 4.34824 104.188 4.03765 104.652 3.72707C104.807 3.72707 104.807 3.88236 104.884 3.88236Z" fill="#3374B0"/>
<path id="Fill-183" d="M104.575 6.13412C104.729 6.21177 104.807 6.36707 104.961 6.44471C105.039 6.67765 104.729 6.7553 104.575 6.91059C96.7624 13.8988 88.4862 20.7318 80.5193 27.72C78.5083 29.5059 76.4199 31.2141 74.3315 33C73.6354 33.5435 73.0166 34.5529 71.9337 34.4753C71.6243 34.3977 72.0884 34.2424 72.2431 34.0871C79.9779 27.1765 88.2541 20.3435 96.1437 13.3553C99.0055 10.8706 101.867 8.54118 104.575 6.13412Z" fill="#3374B0"/>
<path id="Fill-184" d="M104.265 9.31765C104.42 9.78353 103.801 10.0165 103.569 10.2494C94.5967 17.7035 85.6243 25.5459 76.5746 33.0776C75.9558 33.6212 75.4144 34.5529 74.4088 34.3976C74.1768 34.4753 74.2541 34.2424 74.4088 34.2424C81.6796 27.9529 89.105 21.8188 96.453 15.5294C98.9282 13.4329 101.558 11.0259 104.033 9.16235C104.188 9.16235 104.188 9.31765 104.265 9.31765Z" fill="#3374B0"/>
<path id="Fill-185" d="M104.961 11.2588C104.807 11.6471 104.42 11.88 104.11 12.1129C97.3039 17.5482 90.5746 23.2165 83.768 28.8071C81.7569 30.5153 79.6685 32.1459 77.5028 33.8541C77.2707 34.0094 77.0387 34.5529 76.6519 34.1647C76.4972 33.6988 77.0387 33.4659 77.2707 33.3106C86.2431 26.0118 95.4475 18.48 104.42 11.1812C104.42 11.1035 104.652 10.9482 104.652 11.1035C104.807 11.0259 104.807 11.1812 104.961 11.2588Z" fill="#3374B0"/>
<path id="Fill-186" d="M103.956 13.3553H104.111C104.652 13.9765 103.492 14.4424 103.028 14.8306C95.9116 20.4988 88.7182 26.3224 81.6022 32.0682C81.0608 32.5341 80.442 32.9224 79.9006 33.3882C79.3591 33.8541 78.8177 34.5529 77.9669 34.3977C77.7348 34.2424 78.1215 34.0871 78.1215 34.0871C79.9779 32.4565 82.221 30.8259 84.232 29.1953C89.5691 24.9247 95.0608 20.4988 100.398 16.1506C101.635 15.1412 102.873 14.3647 103.956 13.3553Z" fill="#3374B0"/>
<path id="Fill-187" d="M104.343 15.4518C104.033 16.0729 103.414 16.3835 102.873 16.7718C95.8343 22.2847 88.7182 27.9529 81.6022 33.5435C81.0608 33.9318 80.5967 34.5529 79.7459 34.3976C79.5912 34.2424 79.9006 34.1647 79.9006 34.1647C81.6022 32.6894 83.6133 31.1365 85.547 29.6612C87.4807 28.1859 89.6464 26.5553 91.6575 24.9247C95.7569 21.6635 100.088 18.0918 104.033 15.2188C104.188 15.2188 104.188 15.3741 104.343 15.4518Z" fill="#3374B0"/>
<path id="Fill-188" d="M104.884 17.16C105.039 17.4706 104.575 17.7035 104.42 17.8588C102.95 19.1788 101.094 20.3435 99.4696 21.5859L83.9226 33.5435C83.4586 33.9318 82.9945 34.5529 82.221 34.32C81.989 34.1647 82.453 33.9318 82.6851 33.7765C87.9448 29.6612 93.5138 25.5459 98.7735 21.3529C99.7017 20.6541 100.63 19.9553 101.558 19.1788C102.564 18.4024 103.569 17.6259 104.575 16.9271C104.729 17.0824 104.807 17.16 104.884 17.16Z" fill="#3374B0"/>
<path id="Fill-189" d="M104.961 20.3435C104.265 21.0424 103.414 21.6635 102.564 22.2071L100.166 23.9929C95.3702 27.4871 90.2652 30.9035 85.4696 34.4753H84.4641C91.1934 29.6612 98.0774 24.6918 104.652 20.1106C104.884 20.0329 104.807 20.3435 104.961 20.3435Z" fill="#3374B0"/>
<path id="Fill-190" d="M104.343 22.1294C103.724 22.7506 103.028 23.2941 102.254 23.76C97.5359 27.2541 92.5856 30.9035 87.7127 34.3976H86.9392C86.6298 34.3976 86.9392 34.2423 86.9392 34.1647C92.663 30.1271 98.3094 25.9341 103.878 21.8188C103.93 21.8188 103.956 21.8447 103.956 21.8965C104.188 21.8188 104.188 22.0518 104.343 22.1294Z" fill="#3374B0"/>
<path id="Fill-191" d="M104.343 24.5365C103.337 25.4682 102.177 26.3224 101.017 27.0212C97.6906 29.4282 94.2099 31.9129 90.884 34.32H89.8784C94.5967 30.9035 99.3149 27.4871 104.11 24.1482C104.265 24.2259 104.188 24.5365 104.343 24.5365Z" fill="#3374B0"/>
<path id="Fill-192" d="M104.343 26.3224C103.646 27.0988 102.796 27.7976 101.867 28.4188C99.3923 30.36 96.8398 32.3788 94.2873 34.3976H93.5138C93.2818 34.32 93.7459 34.0094 93.9006 33.8541C95.3702 32.6894 96.9171 31.4471 98.4641 30.2824C100.32 28.8847 102.177 27.4871 103.878 26.0894C104.265 26.0118 104.11 26.3224 104.343 26.3224Z" fill="#3374B0"/>
<path id="Fill-193" d="M104.343 28.8071C103.337 29.8165 102.254 30.7482 101.171 31.6024C100.088 32.5341 98.9282 33.3882 97.768 34.2424C97.6906 34.0871 97.6133 33.9318 97.4586 33.8541C99.4696 31.9129 101.79 30.2824 103.878 28.4188C104.188 28.4965 104.265 28.6518 104.343 28.8071Z" fill="#3374B0"/>
<path id="Fill-194" d="M104.42 30.0494C102.95 31.5247 101.635 33 100.166 34.3977H99.547C99.3149 34.32 99.7017 34.0094 99.8564 33.8541C101.094 32.5341 102.718 31.0588 103.878 29.7388C104.265 29.6612 104.188 29.9718 104.42 30.0494Z" fill="#3374B0"/>
<path id="Fill-195" d="M104.343 32.5341C103.569 33.1553 102.796 33.6988 102.022 34.32C101.867 34.1647 101.713 34.0094 101.635 33.7765C102.409 33.3106 103.182 32.6894 103.878 32.0682C104.188 32.0682 104.265 32.3012 104.343 32.5341Z" fill="#3374B0"/>
<path id="Fill-196" d="M105.58 1.16471C105.503 1.4753 105.735 1.4753 105.812 1.70824C106.276 1.55294 106.586 1.32 106.972 1.16471C106.895 0.155297 106.122 1.00941 105.58 1.16471Z" fill="#FEFEFE"/>
<path id="Fill-197" d="M108.442 0.62117C107.591 1.31999 106.354 1.70823 105.657 2.56235C105.735 2.63999 105.812 2.87293 105.967 2.95058C106.895 2.32941 107.823 1.70823 108.829 1.1647C108.674 0.931758 108.674 0.698817 108.442 0.62117Z" fill="#FEFEFE"/>
<path id="Fill-198" d="M105.503 4.27059C105.58 4.42589 105.735 4.50353 105.812 4.65883C106.663 4.1153 107.436 3.49412 108.21 2.87295C109.061 2.32942 109.834 1.70824 110.608 1.00942C110.53 0.854122 110.453 0.62118 110.298 0.543533C108.674 1.86353 107.05 2.95059 105.503 4.27059Z" fill="#FEFEFE"/>
<path id="Fill-199" d="M112.619 0.62117C110.608 2.09646 108.365 3.49411 106.354 4.81411C106.044 4.9694 105.657 5.20235 105.58 5.59058C105.657 5.59058 105.657 5.74588 105.735 5.82352C106.044 5.90117 106.431 5.59058 106.663 5.43529C108.829 4.03764 110.84 2.4847 113.006 1.1647C112.928 0.931758 112.773 0.776464 112.619 0.62117Z" fill="#FEFEFE"/>
<path id="Fill-200" d="M120.431 0.62117C118.033 2.79529 115.403 4.96941 112.773 7.22117C110.608 9.0847 108.287 10.9482 106.199 12.7341C105.967 12.8894 105.425 13.2 105.657 13.6659C106.044 13.9765 106.354 13.3553 106.586 13.2C110.066 10.2494 113.547 7.22117 117.028 4.34823C118.343 3.33882 119.58 2.25176 120.74 1.08705C120.586 0.931758 120.586 0.62117 120.431 0.62117Z" fill="#FEFEFE"/>
<path id="Fill-201" d="M114.32 0.698828C112.928 1.94118 111.304 2.95059 109.757 4.1153C108.674 4.96942 107.514 5.74589 106.508 6.6C106.199 6.83295 105.58 7.06589 105.735 7.60942C106.199 7.76471 106.586 7.29883 106.895 7.06589C109.215 5.35765 111.536 3.64942 113.779 1.94118C114.166 1.63059 114.707 1.4753 114.862 0.931769C114.552 0.854122 114.63 0.543534 114.32 0.698828Z" fill="#FEFEFE"/>
<path id="Fill-202" d="M116.099 0.69882C113.47 3.02823 110.762 5.28 108.055 7.53176C107.127 8.23058 106.276 9.00706 105.425 9.86117C105.89 10.4823 106.431 9.62823 106.818 9.31764C109.215 7.37647 111.536 5.43529 113.856 3.49411C114.785 2.71764 115.713 1.86353 116.486 1.00941C116.331 1.00941 116.486 0.621173 116.099 0.69882Z" fill="#FEFEFE"/>
<path id="Fill-203" d="M122.133 0.698822C117.028 5.20235 111.613 9.86118 106.431 14.2871C106.122 14.52 105.58 14.9082 105.58 15.2965C105.967 15.6847 106.508 15.1412 106.74 14.9082C110.608 11.4918 114.552 8.07529 118.42 4.73647C119.89 3.49412 121.359 2.25176 122.597 1.00941C122.365 0.931763 122.442 0.698822 122.133 0.698822Z" fill="#FEFEFE"/>
<path id="Fill-204" d="M123.989 0.69883C120.895 3.41648 117.878 6.05648 114.552 9.00706C112 11.2588 108.983 13.8212 106.431 15.9953C106.199 16.2282 105.348 16.8494 105.657 17.16C105.967 17.4706 106.586 16.6165 106.818 16.4612C107.359 15.9953 107.823 15.6847 108.055 15.4518C112.077 11.88 115.867 8.46354 119.812 5.04706C121.204 3.88236 122.751 2.64001 123.912 1.4753C124.066 1.32001 124.453 1.16471 124.298 0.854124C124.144 0.854124 124.221 0.621183 123.989 0.69883Z" fill="#FEFEFE"/>
<path id="Fill-205" d="M126.464 0.698822C122.983 3.64941 119.657 6.52235 115.79 9.86118C113.083 12.1906 110.144 14.7529 107.282 17.2376C106.895 17.5482 105.271 18.5576 105.657 19.0235C105.967 19.3341 106.044 19.0235 106.354 18.7906C112.773 13.2776 119.193 7.60941 125.536 2.17412C125.923 1.78588 126.619 1.55294 126.773 0.931763C126.541 0.931763 126.541 0.698822 126.464 0.698822Z" fill="#FEFEFE"/>
<path id="Fill-206" d="M106.663 19.5671C106.354 19.8776 105.193 20.4988 105.735 20.8871C105.967 21.0424 106.044 20.8871 106.431 20.5765C106.818 20.2659 106.972 20.0329 107.127 19.8776C110.608 16.8494 114.011 13.9765 117.337 11.0259C120.663 8.07529 124.066 4.96941 127.392 2.09647C127.779 1.78588 128.862 1.32 128.32 0.698822H128.166C121.204 6.75529 113.702 13.3553 106.663 19.5671Z" fill="#FEFEFE"/>
<path id="Fill-207" d="M130.022 0.698822C127.934 2.56235 125.768 4.50353 123.602 6.4447C117.801 11.7247 111.923 17.0824 106.122 22.5176C105.89 22.7506 105.348 22.9835 105.657 23.2941C105.967 23.6047 106.276 23.2165 106.508 22.9835C107.359 22.2847 108.287 21.2753 108.829 20.8094C112.077 17.9365 115.094 15.1412 118.11 12.3459C121.978 8.77412 125.923 5.20235 129.713 1.70823C129.945 1.55294 130.409 1.32 130.331 0.931763C130.177 0.931763 130.177 0.698822 130.022 0.698822Z" fill="#FEFEFE"/>
<path id="Fill-208" d="M128.243 3.88235C121.127 10.4047 114.088 16.9271 106.972 23.4494C106.663 23.76 105.271 24.6918 105.657 25.08C106.044 25.4682 106.276 24.8471 106.508 24.6141C107.436 23.76 108.442 22.9059 108.983 22.2847C114.63 17.0047 120.122 12.0353 125.691 6.91058C127.624 5.20235 129.713 3.33882 131.569 1.55293C131.801 1.31999 132.343 1.00941 131.878 0.62117H131.724L128.243 3.88235Z" fill="#FEFEFE"/>
<path id="Fill-209" d="M130.409 4.03764C129.171 5.1247 128.011 6.21176 126.851 7.29882C120.044 13.5882 113.083 19.6447 106.276 25.9341C105.967 26.1671 105.425 26.5553 105.735 26.8659C106.044 27.1765 106.508 26.5553 106.663 26.4C115.867 18.0918 124.84 10.0941 133.89 1.78588C134.354 1.31999 134.972 0.854111 134.276 0.62117C132.961 1.78588 131.724 2.87293 130.409 4.03764Z" fill="#FEFEFE"/>
<path id="Fill-210" d="M139.613 3.72707C139.149 3.96001 138.685 4.34824 138.298 4.73648C127.624 14.1318 117.028 23.6047 106.431 33.0777C106.044 33.3882 105.425 33.6988 105.657 34.0871C105.761 34.2424 105.941 34.2424 106.199 34.0871C106.354 33.9318 106.586 33.7765 106.74 33.6212C117.646 23.76 128.785 14.1318 139.613 4.42589C139.691 4.19295 140.155 4.1153 139.845 3.88236C139.768 3.88236 139.691 3.72707 139.613 3.72707Z" fill="#FEFEFE"/>
<path id="Fill-211" d="M131.182 13.2776C123.293 20.1882 115.094 27.0212 107.282 34.0094C107.127 34.1647 106.663 34.32 106.972 34.3976C108.055 34.4753 108.674 33.5435 109.293 32.9224C111.381 31.1365 113.47 29.4282 115.481 27.6424C123.448 20.6541 131.724 13.8212 139.536 6.83294C139.613 6.7553 140 6.6 139.923 6.36706C139.768 6.28941 139.691 6.13412 139.536 6.05647C136.829 8.54118 133.967 10.8706 131.182 13.2776Z" fill="#FEFEFE"/>
<path id="Fill-212" d="M138.994 9.16235C136.597 11.0259 133.889 13.3553 131.414 15.5294C124.066 21.8188 116.641 27.9529 109.37 34.2424C109.293 34.2424 109.138 34.4753 109.37 34.3976C110.376 34.5529 110.917 33.6212 111.536 33.0776C120.586 25.5459 129.558 17.7035 138.53 10.2494C138.762 10.0165 139.381 9.78353 139.227 9.31765C139.149 9.31765 139.149 9.16235 138.994 9.16235Z" fill="#FEFEFE"/>
<path id="Fill-213" d="M139.613 11.0259C139.613 10.8706 139.381 11.0259 139.381 11.1035C130.409 18.4024 121.204 26.0118 112.232 33.2329C112 33.3882 111.459 33.6212 111.613 34.0871C112 34.4753 112.232 33.9318 112.464 33.7765C114.552 32.0682 116.641 30.4377 118.729 28.7294C125.536 23.2165 132.343 17.4706 139.072 12.0353C139.381 11.8024 139.768 11.5694 139.923 11.1812C139.768 11.2588 139.768 11.0259 139.613 11.0259Z" fill="#FEFEFE"/>
<path id="Fill-214" d="M135.436 16.1506C130.099 20.4988 124.608 24.9247 119.271 29.1953C117.26 30.8259 115.017 32.4565 113.16 34.0871C113.16 34.0871 112.773 34.2424 113.006 34.3977C113.856 34.6306 114.398 33.8541 114.939 33.3882C115.481 32.9224 116.099 32.5341 116.641 32.0682C123.757 26.3224 130.95 20.4988 138.066 14.8306C138.53 14.52 139.691 14.0541 139.149 13.3553H138.917C137.834 14.3647 136.597 15.1412 135.436 16.1506Z" fill="#FEFEFE"/>
<path id="Fill-215" d="M138.994 15.2188C135.05 18.0918 130.796 21.6635 126.619 24.9247C124.608 26.5553 122.519 28.1082 120.508 29.6612C118.497 31.2141 116.564 32.6894 114.862 34.1647C114.862 34.1647 114.552 34.2424 114.707 34.3976C115.481 34.5529 116.022 33.9318 116.564 33.5435C123.68 27.9529 130.796 22.2847 137.834 16.7718C138.298 16.3835 138.994 16.0729 139.304 15.4518C139.149 15.4518 139.149 15.2188 138.994 15.2188Z" fill="#FEFEFE"/>
<path id="Fill-216" d="M139.613 17.0047C138.53 17.7035 137.525 18.4023 136.597 19.2565C135.669 19.9553 134.663 20.6541 133.812 21.4306C128.475 25.6235 122.983 29.7388 117.724 33.8541C117.569 34.0094 117.028 34.2423 117.26 34.3976C118.033 34.6306 118.497 34.0094 118.961 33.6212C124.221 29.5835 129.403 25.6235 134.508 21.6635C136.133 20.4212 137.989 19.1788 139.459 17.9365C139.613 17.7812 140.077 17.5482 139.923 17.2376C139.768 17.16 139.768 17.0047 139.613 17.0047Z" fill="#FEFEFE"/>
<path id="Fill-217" d="M139.613 20.0329C132.961 24.6141 126.077 29.5835 119.425 34.3976H120.431C125.304 30.8259 130.331 27.4094 135.127 23.9153L137.525 22.1294C138.376 21.5859 139.149 20.9647 139.923 20.2659C139.691 20.3435 139.768 20.0329 139.613 20.0329Z" fill="#FEFEFE"/>
<path id="Fill-218" d="M138.994 21.8188C138.994 21.7671 138.969 21.7412 138.917 21.7412C133.348 25.9341 127.702 30.0494 121.978 34.0871C121.978 34.1647 121.669 34.32 121.978 34.32H122.751C127.547 30.8259 132.497 27.1765 137.215 23.6824C137.989 23.2165 138.685 22.6729 139.304 22.0518C139.227 22.0518 139.227 21.8965 138.994 21.8188Z" fill="#FEFEFE"/>
<path id="Fill-219" d="M138.994 24.2259C134.276 27.5647 129.481 30.9812 124.84 34.3977H125.845C129.249 31.9906 132.652 29.5059 135.978 27.0988C137.215 26.4 138.298 25.5459 139.304 24.6141C139.149 24.5365 139.227 24.2259 138.994 24.2259Z" fill="#FEFEFE"/>
<path id="Fill-220" d="M138.917 26.0118C137.215 27.4094 135.359 28.8071 133.503 30.2047C131.956 31.4471 130.331 32.6118 128.939 33.7765C128.785 33.9318 128.32 34.2424 128.552 34.32H129.326C131.801 32.3012 134.431 30.36 136.906 28.3412C137.757 27.72 138.608 27.0212 139.381 26.2447C139.072 26.3224 139.227 26.0118 138.917 26.0118Z" fill="#FEFEFE"/>
<path id="Fill-221" d="M138.84 28.4965C136.751 30.36 134.508 31.9906 132.42 33.9318C132.575 34.0094 132.575 34.1647 132.729 34.32C133.812 33.3882 134.972 32.5341 136.055 31.68C137.138 30.8259 138.221 29.8165 139.227 28.8847C139.227 28.6518 139.149 28.4965 138.84 28.4965Z" fill="#FEFEFE"/>
<path id="Fill-222" d="M138.84 29.7388C137.602 31.1365 136.055 32.6118 134.818 33.8541C134.663 34.0094 134.276 34.32 134.508 34.3977H135.127C136.597 33 137.989 31.5247 139.381 30.0494C139.149 29.9718 139.227 29.6612 138.84 29.7388Z" fill="#FEFEFE"/>
<path id="Fill-223" d="M138.84 32.0682C138.144 32.6894 137.448 33.2329 136.597 33.7765C136.674 34.0094 136.751 34.1647 136.983 34.32C137.757 33.6988 138.53 33.1553 139.304 32.5341C139.227 32.3012 139.227 32.0682 138.84 32.0682Z" fill="#FEFEFE"/>
<path id="Fill-224" d="M118.575 0H118.729C119.348 0.621176 118.497 0.854118 117.956 1.39765C114.32 4.58118 110.84 7.60941 107.282 10.7153C106.972 10.9482 105.889 12.2682 105.58 11.7247C105.425 11.4141 106.663 10.4047 106.972 10.1718C110.917 6.75529 114.862 3.41647 118.575 0Z" fill="#1D1D1B"/>
<path id="Fill-225" d="M106.972 1.16471C106.586 1.32 106.276 1.55294 105.812 1.70824C105.735 1.55294 105.503 1.4753 105.58 1.16471C106.122 1.00941 106.895 0.155297 106.972 1.16471Z" fill="#1D1D1B"/>
<path id="Fill-226" d="M108.829 1.1647C107.823 1.70823 106.895 2.32941 105.967 2.95058C105.812 2.87293 105.812 2.71764 105.657 2.56235C106.431 1.78588 107.591 1.39764 108.442 0.62117C108.674 0.698817 108.674 0.931758 108.829 1.1647Z" fill="#1D1D1B"/>
<path id="Fill-227" d="M110.221 0.62117C110.376 0.698817 110.53 0.854111 110.53 1.08705C109.834 1.78588 108.983 2.32941 108.133 2.87293C107.359 3.49411 106.586 4.11529 105.735 4.65882C105.657 4.50352 105.503 4.42588 105.425 4.27058C107.05 2.95058 108.751 1.86352 110.221 0.62117Z" fill="#1D1D1B"/>
<path id="Fill-228" d="M113.006 1.1647C110.84 2.4847 108.829 4.03764 106.663 5.43529C106.431 5.59058 106.044 5.90117 105.735 5.82352C105.657 5.74588 105.657 5.59058 105.58 5.59058C105.657 5.20235 106.044 5.04705 106.354 4.81411C108.365 3.49411 110.608 2.09646 112.619 0.62117C112.851 0.698817 112.928 0.931758 113.006 1.1647Z" fill="#1D1D1B"/>
<path id="Fill-229" d="M120.818 1.00942C119.657 2.17412 118.42 3.26118 117.105 4.27059C113.624 7.14353 110.144 10.1718 106.663 13.1224C106.431 13.2776 106.122 13.8988 105.735 13.5882C105.503 13.1224 106.044 12.8118 106.276 12.6565C108.365 10.8706 110.685 9.00706 112.851 7.14353C115.403 4.96942 118.033 2.71765 120.508 0.543533C120.586 0.62118 120.586 0.931769 120.818 1.00942Z" fill="#1D1D1B"/>
<path id="Fill-230" d="M114.785 0.931766C114.707 1.4753 114.088 1.63059 113.702 1.94118C111.459 3.57177 109.138 5.35765 106.818 7.06588C106.508 7.29883 106.122 7.76471 105.657 7.60941C105.425 7.06588 106.122 6.83294 106.431 6.6C107.514 5.82353 108.597 4.96941 109.68 4.1153C111.227 2.95059 112.851 1.86353 114.243 0.698825C114.63 0.621178 114.63 0.854119 114.785 0.931766Z" fill="#1D1D1B"/>
<path id="Fill-231" d="M116.564 1.00941C115.79 1.86353 114.862 2.64 113.934 3.49412C111.613 5.43529 109.293 7.29882 106.895 9.31765C106.586 9.62823 106.044 10.4047 105.503 9.86117C106.276 9.00706 107.204 8.23059 108.133 7.53176C110.762 5.35765 113.47 3.02823 116.177 0.698822C116.486 0.543528 116.331 0.931763 116.564 1.00941Z" fill="#1D1D1B"/>
<path id="Fill-232" d="M122.597 1.00941C121.282 2.32941 119.812 3.49412 118.42 4.73647C114.552 8.07529 110.608 11.4141 106.74 14.9082C106.508 15.1412 105.967 15.6847 105.58 15.2965C105.503 14.9082 106.122 14.5976 106.431 14.2871C111.536 9.86118 116.95 5.20235 122.133 0.698822C122.442 0.698822 122.365 0.931763 122.597 1.00941Z" fill="#1D1D1B"/>
<path id="Fill-233" d="M124.298 0.931763C124.453 1.24235 124.066 1.39765 123.912 1.55294C122.674 2.79529 121.127 3.96 119.812 5.1247C115.867 8.54117 112.077 11.9576 108.055 15.5294C107.823 15.7624 107.359 16.0729 106.818 16.5388C106.663 16.6941 106.044 17.5482 105.657 17.2376C105.271 16.9271 106.199 16.3059 106.431 16.0729C108.906 13.8212 111.923 11.3365 114.552 9.0847C117.956 6.13412 120.895 3.41647 123.989 0.776469C124.221 0.621175 124.144 0.931763 124.298 0.931763Z" fill="#1D1D1B"/>
<path id="Fill-234" d="M126.696 0.931763C126.541 1.55294 125.923 1.78588 125.459 2.17412C119.193 7.68706 112.696 13.2776 106.276 18.7906C105.967 19.0235 105.89 19.3341 105.58 19.0235C105.193 18.6353 106.818 17.6259 107.204 17.2376C110.066 14.7529 112.928 12.1906 115.713 9.86118C119.58 6.52235 122.906 3.57176 126.387 0.698822C126.619 0.698822 126.619 0.931763 126.696 0.931763Z" fill="#1D1D1B"/>
<path id="Fill-235" d="M128.166 0.698822H128.32C128.862 1.32 127.779 1.70823 127.392 2.09647C124.066 4.96941 120.663 8.15294 117.337 11.0259C114.011 13.8988 110.608 16.8494 107.127 19.8776C106.972 20.0329 106.74 20.3435 106.431 20.5765C106.122 20.8094 105.967 21.0424 105.735 20.8871C105.193 20.4988 106.276 19.8776 106.663 19.5671C113.702 13.3553 121.204 6.75529 128.166 0.698822Z" fill="#1D1D1B"/>
<path id="Fill-236" d="M130.331 0.931763C130.409 1.32 129.945 1.47529 129.713 1.70823C125.923 5.1247 121.978 8.77412 118.11 12.3459C115.017 15.2188 112 17.9365 108.829 20.8094C108.287 21.2753 107.359 22.2071 106.508 22.9835C106.276 23.2165 105.89 23.5271 105.657 23.2941C105.425 23.0612 105.89 22.7506 106.122 22.5176C111.845 17.0824 117.801 11.8024 123.602 6.4447C125.768 4.50353 127.934 2.64 130.022 0.698822C130.177 0.698822 130.177 0.854116 130.331 0.931763Z" fill="#1D1D1B"/>
<path id="Fill-237" d="M131.801 0.698822H131.956C132.42 1.08706 131.878 1.39765 131.646 1.63059C129.79 3.41647 127.702 5.20235 125.768 6.98823C120.199 12.1129 114.707 17.0824 109.061 22.3624C108.442 22.9059 107.436 23.8376 106.586 24.6918C106.354 24.9247 106.044 25.4682 105.735 25.1576C105.425 24.8471 106.74 23.8376 107.05 23.5271C114.166 17.0047 121.204 10.4824 128.32 3.96L131.801 0.698822Z" fill="#1D1D1B"/>
<path id="Fill-238" d="M134.199 0.698822C134.895 0.931763 134.276 1.39765 133.812 1.86353C124.762 10.0941 115.79 18.1694 106.586 26.4776C106.508 26.5553 105.967 27.2541 105.657 26.9435C105.348 26.6329 105.89 26.3224 106.199 26.0118C113.006 19.7224 120.044 13.6659 126.773 7.37647C127.934 6.28941 129.171 5.20235 130.331 4.11529C131.492 3.02823 132.961 1.78588 134.199 0.698822Z" fill="#1D1D1B"/>
<path id="Fill-239" d="M104.884 29.1177V28.9624C115.249 19.9553 125.459 10.4824 135.746 1.39765C136.133 1.08707 136.597 0.621184 136.829 0.854125C137.215 1.24236 136.287 1.70824 136.21 1.78589C133.812 3.96001 131.492 6.05648 129.326 7.99765C126.696 10.3271 123.912 12.7341 121.359 14.9859C116.486 19.4894 111.613 23.9153 106.663 28.2635C106.354 28.5741 106.044 28.8847 105.657 29.1953C105.348 29.3506 105.193 29.4282 104.884 29.1177Z" fill="#1D1D1B"/>
<path id="Fill-240" d="M104.884 30.2824V30.1271C115.713 20.6541 126.773 10.8706 137.448 1.32C137.68 1.08706 138.144 0.54353 138.608 0.776471C138.762 1.32 138.144 1.55294 137.834 1.78588C136.751 2.71765 135.746 3.64941 134.74 4.58118C125.459 12.8894 116.022 21.1976 106.663 29.4282C106.044 29.9718 105.503 30.9812 104.884 30.2824Z" fill="#1D1D1B"/>
<path id="Fill-241" d="M104.884 32.6894C115.867 22.6729 127.16 12.5012 138.144 2.56235C138.453 2.32941 138.84 1.55294 139.227 2.01882C139.304 2.4847 138.762 2.87294 138.453 3.10588C132.961 7.84235 127.779 12.6565 122.442 17.5482C117.26 22.3623 111.845 27.2541 106.508 31.9906C105.812 32.6118 105.271 33.4659 104.884 32.6894Z" fill="#1D1D1B"/>
<path id="Fill-242" d="M139.845 3.88236C140.155 4.1153 139.768 4.19295 139.613 4.42589C128.785 14.1318 117.646 23.6824 106.74 33.6212C106.586 33.7765 106.431 33.9318 106.199 34.0871C105.941 34.2424 105.761 34.2424 105.657 34.0871C105.425 33.6988 106.044 33.4659 106.431 33.0777C117.028 23.6047 127.624 14.1318 138.298 4.73648C138.685 4.34824 139.149 4.03765 139.613 3.72707C139.768 3.72707 139.768 3.88236 139.845 3.88236Z" fill="#1D1D1B"/>
<path id="Fill-243" d="M139.536 6.13412C139.691 6.21177 139.768 6.36707 139.923 6.44471C140 6.67765 139.691 6.7553 139.536 6.91059C131.724 13.8988 123.448 20.7318 115.481 27.72C113.47 29.5059 111.381 31.2141 109.293 33C108.597 33.5435 107.978 34.5529 106.972 34.4753C106.663 34.3977 107.127 34.2424 107.282 34.0871C115.017 27.1765 123.293 20.3435 131.182 13.3553C133.967 10.8706 136.829 8.54118 139.536 6.13412Z" fill="#1D1D1B"/>
<path id="Fill-244" d="M139.227 9.31765C139.381 9.78353 138.762 10.0165 138.53 10.2494C129.558 17.7035 120.586 25.5459 111.536 33.0776C110.917 33.6212 110.376 34.5529 109.37 34.3976C109.138 34.4753 109.293 34.2424 109.37 34.2424C116.641 27.9529 124.066 21.8188 131.414 15.5294C133.889 13.4329 136.519 11.0259 138.994 9.16235C139.149 9.16235 139.149 9.31765 139.227 9.31765Z" fill="#1D1D1B"/>
<path id="Fill-245" d="M139.923 11.2588C139.768 11.6471 139.381 11.88 139.072 12.1129C132.265 17.5482 125.536 23.2165 118.729 28.8071C116.718 30.5153 114.552 32.1459 112.464 33.8541C112.232 34.0094 112 34.5529 111.613 34.1647C111.459 33.6988 112 33.4659 112.232 33.3106C121.204 26.0118 130.409 18.48 139.381 11.1812C139.381 11.1035 139.613 10.9482 139.613 11.1035C139.768 11.0259 139.768 11.1812 139.923 11.2588Z" fill="#1D1D1B"/>
<path id="Fill-246" d="M138.917 13.3553H139.072C139.613 13.9765 138.453 14.4424 137.989 14.8306C130.873 20.4988 123.68 26.3224 116.564 32.0682C116.022 32.5341 115.481 32.9224 114.862 33.3882C114.243 33.8541 113.779 34.5529 112.928 34.3977C112.696 34.2424 113.083 34.0871 113.083 34.0871C114.939 32.4565 117.105 30.8259 119.193 29.1953C124.53 24.9247 130.022 20.4988 135.359 16.1506C136.597 15.1412 137.834 14.3647 138.917 13.3553Z" fill="#1D1D1B"/>
<path id="Fill-247" d="M139.304 15.4518C138.994 16.0729 138.376 16.3835 137.834 16.7718C130.796 22.2847 123.68 27.9529 116.564 33.5435C116.099 33.9318 115.558 34.5529 114.707 34.3976C114.552 34.2424 114.862 34.1647 114.862 34.1647C116.564 32.6894 118.575 31.1365 120.508 29.6612C122.442 28.1859 124.608 26.5553 126.619 24.9247C130.718 21.6635 135.05 18.0918 138.994 15.2188C139.149 15.2188 139.149 15.3741 139.304 15.4518Z" fill="#1D1D1B"/>
<path id="Fill-248" d="M139.845 17.16C140 17.4706 139.536 17.7035 139.381 17.8588C137.834 19.1788 136.055 20.3435 134.431 21.5859C129.249 25.5459 124.066 29.5835 118.884 33.5435C118.42 33.9318 117.956 34.5529 117.182 34.32C116.95 34.1647 117.414 33.9318 117.646 33.7765C122.906 29.6612 128.475 25.5459 133.735 21.3529C134.663 20.6541 135.591 19.9553 136.519 19.1788C137.525 18.4024 138.53 17.6259 139.536 16.9271C139.691 17.0824 139.768 17.16 139.845 17.16Z" fill="#1D1D1B"/>
<path id="Fill-249" d="M139.923 20.3435C139.227 21.0424 138.376 21.6635 137.525 22.2071L135.127 23.9929C130.331 27.4871 125.227 30.9035 120.431 34.4753H119.425C126.155 29.6612 133.039 24.6918 139.613 20.1106C139.845 20.0329 139.768 20.3435 139.923 20.3435Z" fill="#1D1D1B"/>
<path id="Fill-250" d="M139.304 22.1294C138.685 22.7506 137.989 23.2941 137.215 23.76C132.497 27.2541 127.547 30.9035 122.751 34.3976H121.978C121.669 34.3976 121.978 34.2423 121.978 34.1647C127.702 30.1271 133.271 25.9341 138.917 21.8188C138.969 21.8188 138.994 21.8447 138.994 21.8965C139.227 21.8188 139.149 22.0518 139.304 22.1294Z" fill="#1D1D1B"/>
<path id="Fill-251" d="M139.304 24.5365C138.298 25.4682 137.138 26.3224 135.978 27.0212C132.652 29.4282 129.171 31.9129 125.845 34.32H124.84C129.558 30.9035 134.276 27.4871 138.994 24.1482C139.227 24.2259 139.149 24.5365 139.304 24.5365Z" fill="#1D1D1B"/>
<path id="Fill-252" d="M139.304 26.3224C138.608 27.0988 137.757 27.7976 136.829 28.4188C134.354 30.36 131.801 32.3788 129.249 34.3976H128.475C128.243 34.32 128.707 34.0094 128.862 33.8541C130.331 32.6894 131.878 31.4471 133.425 30.2824C135.282 28.8847 137.138 27.4871 138.84 26.0894C139.227 26.0118 139.072 26.3224 139.304 26.3224Z" fill="#1D1D1B"/>
<path id="Fill-253" d="M139.304 28.8071C138.298 29.8165 137.215 30.7482 136.133 31.6024C135.05 32.5341 133.889 33.3882 132.807 34.2424C132.729 34.0871 132.652 33.9318 132.497 33.8541C134.508 31.9129 136.829 30.2824 138.917 28.4188C139.149 28.4965 139.227 28.6518 139.304 28.8071Z" fill="#1D1D1B"/>
<path id="Fill-254" d="M139.381 30.0494C137.989 31.5247 136.597 33 135.127 34.3977H134.508C134.276 34.32 134.663 34.0094 134.818 33.8541C136.055 32.5341 137.68 31.0588 138.84 29.7388C139.227 29.6612 139.149 29.9718 139.381 30.0494Z" fill="#1D1D1B"/>
<path id="Fill-255" d="M139.304 32.5341C138.53 33.1553 137.757 33.6988 136.983 34.32C136.829 34.1647 136.674 34.0094 136.597 33.7765C137.37 33.3106 138.144 32.6894 138.84 32.0682C139.149 32.0682 139.227 32.3012 139.304 32.5341Z" fill="#1D1D1B"/>
</g>
</svg>
