<svg xmlns="http://www.w3.org/2000/svg" width="28" height="28" viewBox="0 0 28 28" fill="none">
  <path fill-rule="evenodd" clip-rule="evenodd" d="M26.0041 23.9965V22.0005H28V23.9965C28 26.1931 26.1931 28 23.9965 28H22.0005V25.9924H23.9965C25.0945 25.9924 26.0041 25.095 26.0041 23.9965Z" fill="white"/>
  <path fill-rule="evenodd" clip-rule="evenodd" d="M26.0041 4.00353C26.0041 2.90546 25.0945 1.99593 23.9965 1.99593H22.0005V0H23.9965C26.1931 0 28 1.80693 28 4.00353V5.99946H26.0041V4.00353Z" fill="white"/>
  <path fill-rule="evenodd" clip-rule="evenodd" d="M2.0076 23.9965C2.0076 25.0945 2.905 25.9924 4.00353 25.9924H5.99947V28H4.00353C1.80693 28 -1.90735e-06 26.1931 -1.90735e-06 23.9965V22.0005H2.0076V23.9965Z" fill="white"/>
  <path fill-rule="evenodd" clip-rule="evenodd" d="M4.00353 0H5.99947V1.99593H4.00353C2.90546 1.99593 2.0076 2.90546 2.0076 4.00353V5.99946H-1.90735e-06V4.00353C-1.90735e-06 1.80693 1.80693 0 4.00353 0Z" fill="white"/>
  <path fill-rule="evenodd" clip-rule="evenodd" d="M14.0061 5.99898C14.0061 4.90092 14.9035 4.00305 16.002 4.00305H22.001C23.0991 4.00305 23.9969 4.90045 23.9969 5.99898V11.998C23.9969 13.096 23.0995 13.9939 22.001 13.9939H16.002C14.9039 13.9939 14.0061 13.0965 14.0061 11.998V5.99898ZM16.0015 11.9984H22.0005V5.99945H16.0015V11.9984Z" fill="white"/>
  <path d="M17.9975 7.9949H20.0051V10.0025H17.9975V7.9949Z" fill="white"/>
  <path fill-rule="evenodd" clip-rule="evenodd" d="M4.00352 22.001V16.002C4.00352 14.9039 4.90092 13.9944 5.99946 13.9944H11.9985C13.0965 13.9944 14.0061 14.9039 14.0061 16.002V22.001C14.0061 23.099 13.0965 23.9969 11.9985 23.9969H5.99946C4.90139 23.9969 4.00352 23.0995 4.00352 22.001ZM11.9985 16.0015H5.99946V22.0005H11.9985V16.0015Z" fill="white"/>
  <path d="M8.00659 17.9975H10.0025V19.9934H8.00659V17.9975Z" fill="white"/>
  <path fill-rule="evenodd" clip-rule="evenodd" d="M5.99899 11.9985H4.00306V5.99947C4.00306 4.90141 4.90046 4.00354 5.99899 4.00354H8.00659V5.99947H5.99899V11.9985Z" fill="white"/>
  <path d="M8.00706 10.0025H11.9985V11.9984H8.00706V10.0025Z" fill="white"/>
  <path d="M8.00659 5.99899H10.0025V7.99492H8.00659V5.99899Z" fill="white"/>
  <path d="M10.0025 4.00354H11.9985V5.99947H10.0025V4.00354Z" fill="white"/>
  <path fill-rule="evenodd" clip-rule="evenodd" d="M22.001 15.6473H23.9969V21.6463C23.9969 22.7444 23.0995 23.6422 22.001 23.6422H20.0051V21.6463H22.001V15.6473Z" fill="white"/>
  <path d="M16.0015 15.6473H20.0051V17.6432H16.0015V15.6473Z" fill="white"/>
  <path d="M17.9975 19.6387H20.0051V21.6463H17.9975V19.6387Z" fill="white"/>
  <path d="M16.0015 21.6463H17.9975V23.6422H16.0015V21.6463Z" fill="white"/>
</svg>